<svg width="4440" height="1650" viewBox="0 0 4440 1650" fill="none" xmlns="http://www.w3.org/2000/svg">
<mask id="mask0_13767_298" style="mask-type:alpha" maskUnits="userSpaceOnUse" x="0" y="0" width="1487" height="1650">
<rect width="1487" height="1650" fill="#D9D9D9"/>
</mask>
<g mask="url(#mask0_13767_298)">
<path d="M4.73312 29.1853L6.02042 29.8495C12.1699 33.022 19.4793 26.534 22.1881 20.1666C23.6257 16.7871 26.3818 14.3162 31.1964 14.0311C46.9665 13.0969 60.9844 19.6357 66.8251 28.9768C72.6659 38.3179 67.4092 47.659 79.0908 38.3179C90.7723 28.9768 101.286 28.9768 108.295 28.9768C115.304 28.9768 112.383 43.9225 130.49 28.9768C148.596 14.0311 154.437 -18.6627 171.96 14.0311C189.482 46.7248 190.65 43.9225 202.916 28.9768C215.181 14.0311 223.358 6.5582 232.12 28.9768C240.881 51.3954 244.385 43.9225 263.66 28.9768C282.934 14.0311 276.509 6.5582 296.368 28.9768C316.227 51.3954 312.722 28.9768 336.085 28.9768C359.449 28.9768 368.794 28.9768 383.396 38.3179C397.998 47.6589 409.679 28.9767 423.697 21.5039C437.715 14.0311 432.458 -10.2558 451.149 14.0311C469.839 38.3179 483.273 52.3295 489.114 42.0543C494.955 31.7791 493.786 19.6356 499.627 24.3062C505.468 28.9768 516.565 34.5815 517.734 38.3179C518.902 42.0543 530.582 47.6589 541.68 32.7132C552.777 17.7674 558.035 13.0969 563.292 21.5039C568.548 29.9109 576.724 51.3953 583.149 32.7132C589.574 14.0311 585.487 3.75587 596 14.0311C606.513 24.3062 611.77 49.5272 629.292 38.3179C646.815 27.1085 642.725 13.0969 652.654 24.3062C662.584 35.5155 660.248 45.7907 666.672 42.0543C673.097 38.3179 678.354 24.3062 685.363 21.5039C692.372 18.7016 711.647 25.2403 714.568 36.4496C717.488 47.6589 723.912 55.1319 725.664 38.3179C727.416 21.5039 734.425 21.5039 738.514 28.9768C747.451 45.3109 771.105 26.6209 787.188 36.0039C788.266 36.6335 789.073 37.422 789.914 38.3179C793.418 42.0543 796.922 36.4496 805.683 32.7132C814.444 28.9768 813.277 19.6357 830.799 24.3062C848.322 28.9768 858.251 52.3296 863.508 38.3179C868.764 24.3062 881.614 27.1085 884.534 32.7132C887.455 38.3179 882.781 41.1202 890.958 32.7132C899.135 24.3062 902.056 23.3721 907.312 28.0426C912.569 32.7132 913.154 38.3178 918.995 40.1861C924.836 42.0543 928.34 42.9884 937.685 32.7132C947.031 22.438 951.118 15.8992 954.623 24.3062C958.127 32.7132 956.376 15.8992 969.81 24.3062C973.017 26.3137 976.124 28.7472 979.045 31.149C990.556 40.6155 1009.22 33.175 1022.38 40.1861C1025.88 42.0543 1024.13 15.8992 1038.14 24.3062C1052.16 32.7132 1049.83 48.593 1059.17 36.4496C1068.52 24.3062 1073.77 21.5038 1080.78 29.9109C1086.36 36.6079 1096.03 6.55356 1105.63 14.8273C1110.31 18.8566 1122.3 20.4384 1124.59 26.1744C1128.68 36.4496 1126.92 46.7248 1133.93 36.4496C1140.94 26.1744 1145.03 17.7674 1148.53 26.1744C1152.04 34.5814 1155.54 26.1744 1159.63 24.3062C1163.72 22.438 1171.9 13.0969 1174.23 20.5698C1176.57 28.0426 1185.92 32.7132 1187.08 34.5814C1188.25 36.4496 1190 33.6473 1196.43 28.0426C1202.85 22.438 1205.19 28.9768 1209.28 33.6473C1212.93 37.8231 1221.73 -7.28315 1243.17 20.5C1245.01 22.8885 1254.19 23.7612 1256 26.1744C1263.01 35.5155 1263.6 37.3837 1265.93 33.6473C1268.27 29.9109 1266.52 21.5039 1273.53 26.1744C1280.54 30.845 1284.04 33.6473 1284.62 33.6473C1285.21 33.6473 1291.05 23.3721 1293.97 23.3721C1296.89 23.3721 1305.07 25.2403 1307.4 30.845C1309.74 36.4496 1304.48 34.5814 1317.33 30.845C1330.18 27.1085 1329.6 26.1744 1332.52 29.9109C1335.44 33.6473 1335.44 43.9225 1340.7 32.7132C1345.95 21.5039 1357.05 2.82168 1368.15 14.9651C1379.25 27.1085 1384.5 30.845 1388.01 32.7132C1391.51 34.5814 1390.93 28.9768 1393.26 27.1085C1395.6 25.2403 1396.18 25.2403 1404.94 28.9768C1413.71 32.7132 1418.38 7.49223 1428.31 24.3062C1438.14 40.9634 1443.4 29.2006 1446.33 22.6223L1446.41 22.438C1449.33 15.8992 1448.75 9.36047 1455.76 15.8992C1462.77 22.438 1461.6 39.2519 1472.11 22.438C1482.63 5.62401 1479.12 2.8217 1486.72 3.75581C1496.77 4.99231 1501.92 15.5236 1501.94 25.6504L1505.94 1595.03C1505.97 1607.57 1496.87 1625.02 1490.22 1614.39C1483.21 1603.18 1490.22 1612.52 1478.54 1624.66C1466.86 1636.81 1455.76 1642.41 1445.25 1624.66C1434.73 1606.91 1441.16 1596.64 1427.72 1610.65C1414.29 1624.66 1404.94 1630.27 1399.69 1624.66C1394.43 1619.06 1395.02 1603.18 1386.84 1610.65C1378.66 1618.12 1381.58 1648.02 1365.81 1631.2C1350.04 1614.39 1333.1 1648.02 1316.75 1614.39C1300.39 1580.76 1307.99 1604.11 1298.06 1614.39C1288.13 1624.66 1291.05 1625.6 1279.95 1619.99C1268.85 1614.39 1281.12 1601.31 1262.43 1610.65C1243.74 1619.99 1235.56 1618.12 1232.06 1610.65C1228.55 1603.18 1225.05 1642.41 1202.85 1631.2C1180.66 1619.99 1191.17 1634 1173.07 1619.99C1154.96 1605.98 1157.88 1629.33 1126.34 1610.65C1094.8 1591.97 1111.74 1616.26 1093.63 1619.99C1075.52 1623.73 1080.78 1664.83 1065.6 1637.74C1050.41 1610.65 1068.52 1616.26 1042.23 1610.65C1015.95 1605.05 1024.71 1604.11 1017.7 1614.39C1010.69 1624.66 1000.18 1629.33 992.005 1619.99L991.722 1619.67C983.718 1610.52 979.019 1605.15 967.472 1614.39C955.791 1623.73 962.217 1619.99 949.367 1625.6C936.517 1631.2 935.349 1633.07 927.172 1621.86C918.995 1610.65 918.995 1597.57 904.977 1604.11C890.959 1610.65 859.418 1618.12 850.073 1614.39C840.728 1610.65 840.729 1613.45 824.958 1625.6C809.188 1637.74 810.356 1664.83 799.842 1639.61C789.329 1614.39 794.586 1614.39 781.737 1614.39H756.036C751.948 1614.39 743.771 1619.99 740.85 1608.78C737.93 1597.57 739.099 1612.52 724.497 1621.86C709.895 1631.2 705.222 1624.66 703.469 1614.39C701.717 1604.11 690.035 1603.18 688.867 1614.39C687.699 1625.6 690.62 1642.41 676.602 1634C662.584 1625.6 657.912 1634.94 651.487 1621.86C645.062 1608.78 660.249 1614.39 635.133 1614.39C610.018 1614.39 601.84 1623.73 595.415 1614.39C588.99 1605.05 567.964 1606.91 565.628 1614.39C563.292 1621.86 559.203 1646.15 538.176 1634C517.149 1621.86 516.565 1601.31 506.052 1609.72C495.539 1618.12 497.291 1614.39 485.025 1614.39C475.834 1614.39 468.283 1617.01 463.846 1616.36C465.025 1618.81 463.726 1621.86 452.317 1621.86C429.538 1621.86 436.547 1612.52 424.865 1628.4C413.184 1644.28 406.759 1646.15 399.166 1634C391.573 1621.86 395.661 1606.91 382.812 1614.39C369.962 1621.86 369.962 1619.99 363.537 1617.19C357.112 1614.39 354.776 1619.06 345.431 1621.86C336.085 1624.66 334.917 1617.19 329.076 1617.19C323.236 1617.19 324.988 1606.91 316.227 1614.39C307.466 1621.86 299.873 1615.32 294.032 1624.66C288.191 1634 287.607 1646.15 276.51 1634C265.412 1621.86 274.757 1611.59 258.403 1614.39L257.374 1614.56C241.418 1617.3 226.887 1619.8 228.031 1610.65C229.161 1601.61 213.894 1611.81 206.551 1616.71L205.836 1617.19C198.827 1621.86 198.827 1615.32 190.066 1610.65C181.305 1605.98 170.207 1604.11 166.119 1610.65C162.03 1617.19 163.198 1609.72 159.11 1621.86C155.021 1634 150.933 1654.55 143.34 1644.28C139.946 1639.69 134.935 1631.38 130.325 1623.37C126.078 1615.99 112.787 1611.46 104.79 1614.39C84.3474 1621.86 72.0818 1619.99 66.241 1617.19C60.4003 1614.39 57.4799 1612.52 47.5506 1617.19C28.8128 1626 8.33481 1609.69 8.25171 1588.98L2.00001 30.8583C1.99591 29.8204 2.83611 28.9768 3.87391 28.9768C4.17281 28.9768 4.46742 29.0483 4.73312 29.1853Z" fill="#A26E42" stroke="black" stroke-width="3"/>
</g>
<mask id="mask1_13767_298" style="mask-type:alpha" maskUnits="userSpaceOnUse" x="1487" y="0" width="1466" height="1650">
<rect width="1466" height="1650" transform="matrix(-1 0 0 1 2953 0)" fill="#D9D9D9"/>
</mask>
<g mask="url(#mask1_13767_298)">
<path d="M2969.27 29.1853L2967.98 29.8495C2961.83 33.022 2954.52 26.534 2951.81 20.1666C2950.37 16.7871 2947.62 14.3162 2942.8 14.0311C2927.03 13.0969 2913.02 19.6357 2907.17 28.9768C2901.33 38.3179 2906.59 47.659 2894.91 38.3179C2883.23 28.9768 2872.71 28.9768 2865.71 28.9768C2858.7 28.9768 2861.62 43.9225 2843.51 28.9768C2825.4 14.0311 2819.56 -18.6627 2802.04 14.0311C2784.52 46.7248 2783.35 43.9225 2771.08 28.9768C2758.82 14.0311 2750.64 6.5582 2741.88 28.9768C2733.12 51.3954 2729.62 43.9225 2710.34 28.9768C2691.07 14.0311 2697.49 6.5582 2677.63 28.9768C2657.77 51.3954 2661.28 28.9768 2637.92 28.9768C2614.55 28.9768 2605.21 28.9768 2590.6 38.3179C2576 47.6589 2564.32 28.9767 2550.3 21.5039C2536.29 14.0311 2541.54 -10.2558 2522.85 14.0311C2504.16 38.3179 2490.73 52.3295 2484.89 42.0543C2479.05 31.7791 2480.21 19.6356 2474.37 24.3062C2468.53 28.9768 2457.44 34.5815 2456.27 38.3179C2455.1 42.0543 2443.42 47.6589 2432.32 32.7132C2421.22 17.7674 2415.97 13.0969 2410.71 21.5039C2405.45 29.9109 2397.28 51.3953 2390.85 32.7132C2384.43 14.0311 2388.51 3.75587 2378 14.0311C2367.49 24.3062 2362.23 49.5272 2344.71 38.3179C2327.19 27.1085 2331.27 13.0969 2321.35 24.3062C2311.42 35.5155 2313.75 45.7907 2307.33 42.0543C2300.9 38.3179 2295.65 24.3062 2288.64 21.5039C2281.63 18.7016 2262.35 25.2403 2259.43 36.4496C2256.51 47.6589 2250.09 55.1319 2248.34 38.3179C2246.58 21.5039 2239.57 21.5039 2235.49 28.9768C2226.55 45.3109 2202.89 26.6209 2186.81 36.0039C2185.73 36.6335 2184.93 37.422 2184.09 38.3179C2180.58 42.0543 2177.08 36.4496 2168.32 32.7132C2159.56 28.9768 2160.72 19.6357 2143.2 24.3062C2125.68 28.9768 2115.75 52.3296 2110.49 38.3179C2105.24 24.3062 2092.39 27.1085 2089.47 32.7132C2086.55 38.3179 2091.22 41.1202 2083.04 32.7132C2074.86 24.3062 2071.94 23.3721 2066.69 28.0426C2061.43 32.7132 2060.85 38.3178 2055.01 40.1861C2049.16 42.0543 2045.66 42.9884 2036.32 32.7132C2026.97 22.438 2022.88 15.8992 2019.38 24.3062C2015.87 32.7132 2017.62 15.8992 2004.19 24.3062C2000.98 26.3137 1997.88 28.7472 1994.95 31.149C1983.44 40.6155 1964.78 33.175 1951.62 40.1861C1948.12 42.0543 1949.87 15.8992 1935.86 24.3062C1921.84 32.7132 1924.17 48.593 1914.83 36.4496C1905.48 24.3062 1900.23 21.5038 1893.22 29.9109C1887.64 36.6079 1877.97 6.55356 1868.37 14.8273C1863.69 18.8566 1851.7 20.4384 1849.41 26.1744C1845.32 36.4496 1847.08 46.7248 1840.07 36.4496C1833.06 26.1744 1828.97 17.7674 1825.47 26.1744C1821.96 34.5814 1818.46 26.1744 1814.37 24.3062C1810.28 22.438 1802.1 13.0969 1799.77 20.5698C1797.43 28.0426 1788.08 32.7132 1786.92 34.5814C1785.75 36.4496 1784 33.6473 1777.57 28.0426C1771.15 22.438 1768.81 28.9768 1764.72 33.6473C1761.07 37.8231 1752.27 -7.28315 1730.83 20.5C1728.99 22.8885 1719.81 23.7612 1718 26.1744C1710.99 35.5155 1710.4 37.3837 1708.07 33.6473C1705.73 29.9109 1707.48 21.5039 1700.47 26.1744C1693.46 30.845 1689.96 33.6473 1689.38 33.6473C1688.79 33.6473 1682.95 23.3721 1680.03 23.3721C1677.11 23.3721 1668.93 25.2403 1666.6 30.845C1664.26 36.4496 1669.52 34.5814 1656.67 30.845C1643.82 27.1085 1644.4 26.1744 1641.48 29.9109C1638.56 33.6473 1638.56 43.9225 1633.3 32.7132C1628.05 21.5039 1616.95 2.82168 1605.85 14.9651C1594.75 27.1085 1589.5 30.845 1585.99 32.7132C1582.49 34.5814 1583.07 28.9768 1580.74 27.1085C1578.4 25.2403 1577.82 25.2403 1569.06 28.9768C1560.29 32.7132 1555.62 7.49223 1545.69 24.3062C1535.86 40.9634 1530.6 29.2006 1527.67 22.6223L1527.59 22.438C1524.67 15.8992 1525.25 9.36047 1518.24 15.8992C1511.23 22.438 1512.4 39.2519 1501.89 22.438C1491.37 5.62401 1494.88 2.8217 1487.28 3.75581C1477.23 4.99231 1472.08 15.5236 1472.06 25.6504L1468.06 1595.03C1468.03 1607.57 1477.13 1625.02 1483.78 1614.39C1490.79 1603.18 1483.78 1612.52 1495.46 1624.66C1507.14 1636.81 1518.24 1642.41 1528.75 1624.66C1539.27 1606.91 1532.84 1596.64 1546.28 1610.65C1559.71 1624.66 1569.06 1630.27 1574.31 1624.66C1579.57 1619.06 1578.98 1603.18 1587.16 1610.65C1595.34 1618.12 1592.42 1648.02 1608.19 1631.2C1623.96 1614.39 1640.9 1648.02 1657.25 1614.39C1673.61 1580.76 1666.01 1604.11 1675.94 1614.39C1685.87 1624.66 1682.95 1625.6 1694.05 1619.99C1705.15 1614.39 1692.88 1601.31 1711.57 1610.65C1730.26 1619.99 1738.44 1618.12 1741.94 1610.65C1745.45 1603.18 1748.95 1642.41 1771.15 1631.2C1793.34 1619.99 1782.83 1634 1800.93 1619.99C1819.04 1605.98 1816.12 1629.33 1847.66 1610.65C1879.2 1591.97 1862.26 1616.26 1880.37 1619.99C1898.48 1623.73 1893.22 1664.83 1908.4 1637.74C1923.59 1610.65 1905.48 1616.26 1931.77 1610.65C1958.05 1605.05 1949.29 1604.11 1956.3 1614.39C1963.31 1624.66 1973.82 1629.33 1982 1619.99L1982.28 1619.67C1990.28 1610.52 1994.98 1605.15 2006.53 1614.39C2018.21 1623.73 2011.78 1619.99 2024.63 1625.6C2037.48 1631.2 2038.65 1633.07 2046.83 1621.86C2055.01 1610.65 2055.01 1597.57 2069.02 1604.11C2083.04 1610.65 2114.58 1618.12 2123.93 1614.39C2133.27 1610.65 2133.27 1613.45 2149.04 1625.6C2164.81 1637.74 2163.64 1664.83 2174.16 1639.61C2184.67 1614.39 2179.41 1614.39 2192.26 1614.39H2217.96C2222.05 1614.39 2230.23 1619.99 2233.15 1608.78C2236.07 1597.57 2234.9 1612.52 2249.5 1621.86C2264.11 1631.2 2268.78 1624.66 2270.53 1614.39C2272.28 1604.11 2283.96 1603.18 2285.13 1614.39C2286.3 1625.6 2283.38 1642.41 2297.4 1634C2311.42 1625.6 2316.09 1634.94 2322.51 1621.86C2328.94 1608.78 2313.75 1614.39 2338.87 1614.39C2363.98 1614.39 2372.16 1623.73 2378.58 1614.39C2385.01 1605.05 2406.04 1606.91 2408.37 1614.39C2410.71 1621.86 2414.8 1646.15 2435.82 1634C2456.85 1621.86 2457.44 1601.31 2467.95 1609.72C2478.46 1618.12 2476.71 1614.39 2488.98 1614.39C2498.17 1614.39 2505.72 1617.01 2510.15 1616.36C2508.98 1618.81 2510.27 1621.86 2521.68 1621.86C2544.46 1621.86 2537.45 1612.52 2549.14 1628.4C2560.82 1644.28 2567.24 1646.15 2574.83 1634C2582.43 1621.86 2578.34 1606.91 2591.19 1614.39C2604.04 1621.86 2604.04 1619.99 2610.46 1617.19C2616.89 1614.39 2619.22 1619.06 2628.57 1621.86C2637.92 1624.66 2639.08 1617.19 2644.92 1617.19C2650.76 1617.19 2649.01 1606.91 2657.77 1614.39C2666.53 1621.86 2674.13 1615.32 2679.97 1624.66C2685.81 1634 2686.39 1646.15 2697.49 1634C2708.59 1621.86 2699.24 1611.59 2715.6 1614.39L2716.63 1614.56C2732.58 1617.3 2747.11 1619.8 2745.97 1610.65C2744.84 1601.61 2760.11 1611.81 2767.45 1616.71L2768.16 1617.19C2775.17 1621.86 2775.17 1615.32 2783.93 1610.65C2792.7 1605.98 2803.79 1604.11 2807.88 1610.65C2811.97 1617.19 2810.8 1609.72 2814.89 1621.86C2818.98 1634 2823.07 1654.55 2830.66 1644.28C2834.05 1639.69 2839.07 1631.38 2843.68 1623.37C2847.92 1615.99 2861.21 1611.46 2869.21 1614.39C2889.65 1621.86 2901.92 1619.99 2907.76 1617.19C2913.6 1614.39 2916.52 1612.52 2926.45 1617.19C2945.19 1626 2965.67 1609.69 2965.75 1588.98L2972 30.8583C2972 29.8204 2971.16 28.9768 2970.13 28.9768C2969.83 28.9768 2969.53 29.0483 2969.27 29.1853Z" fill="#A26E42" stroke="black" stroke-width="3"/>
</g>
<mask id="mask2_13767_298" style="mask-type:alpha" maskUnits="userSpaceOnUse" x="2953" y="0" width="1487" height="1650">
<rect x="2953" width="1487" height="1650" fill="#D9D9D9"/>
</mask>
<g mask="url(#mask2_13767_298)">
<path d="M2936.73 29.1853L2938.02 29.8495C2944.17 33.022 2951.48 26.534 2954.19 20.1666C2955.63 16.7871 2958.38 14.3162 2963.2 14.0311C2978.97 13.0969 2992.98 19.6357 2998.83 28.9768C3004.67 38.3179 2999.41 47.659 3011.09 38.3179C3022.77 28.9768 3033.29 28.9768 3040.29 28.9768C3047.3 28.9768 3044.38 43.9225 3062.49 28.9768C3080.6 14.0311 3086.44 -18.6627 3103.96 14.0311C3121.48 46.7248 3122.65 43.9225 3134.92 28.9768C3147.18 14.0311 3155.36 6.5582 3164.12 28.9768C3172.88 51.3954 3176.38 43.9225 3195.66 28.9768C3214.93 14.0311 3208.51 6.5582 3228.37 28.9768C3248.23 51.3954 3244.72 28.9768 3268.08 28.9768C3291.45 28.9768 3300.79 28.9768 3315.4 38.3179C3330 47.6589 3341.68 28.9767 3355.7 21.5039C3369.71 14.0311 3364.46 -10.2558 3383.15 14.0311C3401.84 38.3179 3415.27 52.3295 3421.11 42.0543C3426.95 31.7791 3425.79 19.6356 3431.63 24.3062C3437.47 28.9768 3448.56 34.5815 3449.73 38.3179C3450.9 42.0543 3462.58 47.6589 3473.68 32.7132C3484.78 17.7674 3490.03 13.0969 3495.29 21.5039C3500.55 29.9109 3508.72 51.3953 3515.15 32.7132C3521.57 14.0311 3517.49 3.75587 3528 14.0311C3538.51 24.3062 3543.77 49.5272 3561.29 38.3179C3578.81 27.1085 3574.73 13.0969 3584.65 24.3062C3594.58 35.5155 3592.25 45.7907 3598.67 42.0543C3605.1 38.3179 3610.35 24.3062 3617.36 21.5039C3624.37 18.7016 3643.65 25.2403 3646.57 36.4496C3649.49 47.6589 3655.91 55.1319 3657.66 38.3179C3659.42 21.5039 3666.43 21.5039 3670.51 28.9768C3679.45 45.3109 3703.11 26.6209 3719.19 36.0039C3720.27 36.6335 3721.07 37.422 3721.91 38.3179C3725.42 42.0543 3728.92 36.4496 3737.68 32.7132C3746.44 28.9768 3745.28 19.6357 3762.8 24.3062C3780.32 28.9768 3790.25 52.3296 3795.51 38.3179C3800.76 24.3062 3813.61 27.1085 3816.53 32.7132C3819.45 38.3179 3814.78 41.1202 3822.96 32.7132C3831.14 24.3062 3834.06 23.3721 3839.31 28.0426C3844.57 32.7132 3845.15 38.3178 3850.99 40.1861C3856.84 42.0543 3860.34 42.9884 3869.68 32.7132C3879.03 22.438 3883.12 15.8992 3886.62 24.3062C3890.13 32.7132 3888.38 15.8992 3901.81 24.3062C3905.02 26.3137 3908.12 28.7472 3911.05 31.149C3922.56 40.6155 3941.22 33.175 3954.38 40.1861C3957.88 42.0543 3956.13 15.8992 3970.14 24.3062C3984.16 32.7132 3981.83 48.593 3991.17 36.4496C4000.52 24.3062 4005.77 21.5038 4012.78 29.9109C4018.36 36.6079 4028.03 6.55356 4037.63 14.8273C4042.31 18.8566 4054.3 20.4384 4056.59 26.1744C4060.68 36.4496 4058.92 46.7248 4065.93 36.4496C4072.94 26.1744 4077.03 17.7674 4080.53 26.1744C4084.04 34.5814 4087.54 26.1744 4091.63 24.3062C4095.72 22.438 4103.9 13.0969 4106.23 20.5698C4108.57 28.0426 4117.92 32.7132 4119.08 34.5814C4120.25 36.4496 4122 33.6473 4128.43 28.0426C4134.85 22.438 4137.19 28.9768 4141.28 33.6473C4144.93 37.8231 4153.73 -7.28315 4175.17 20.5C4177.01 22.8885 4186.19 23.7612 4188 26.1744C4195.01 35.5155 4195.6 37.3837 4197.93 33.6473C4200.27 29.9109 4198.52 21.5039 4205.53 26.1744C4212.54 30.845 4216.04 33.6473 4216.62 33.6473C4217.21 33.6473 4223.05 23.3721 4225.97 23.3721C4228.89 23.3721 4237.07 25.2403 4239.4 30.845C4241.74 36.4496 4236.48 34.5814 4249.33 30.845C4262.18 27.1085 4261.6 26.1744 4264.52 29.9109C4267.44 33.6473 4267.44 43.9225 4272.7 32.7132C4277.95 21.5039 4289.05 2.82168 4300.15 14.9651C4311.25 27.1085 4316.5 30.845 4320.01 32.7132C4323.51 34.5814 4322.93 28.9768 4325.26 27.1085C4327.6 25.2403 4328.18 25.2403 4336.94 28.9768C4345.71 32.7132 4350.38 7.49223 4360.31 24.3062C4370.14 40.9634 4375.4 29.2006 4378.33 22.6223L4378.41 22.438C4381.33 15.8992 4380.75 9.36047 4387.76 15.8992C4394.77 22.438 4393.6 39.2519 4404.11 22.438C4414.63 5.62401 4411.12 2.8217 4418.72 3.75581C4428.77 4.99231 4433.92 15.5236 4433.94 25.6504L4437.94 1595.03C4437.97 1607.57 4428.87 1625.02 4422.22 1614.39C4415.21 1603.18 4422.22 1612.52 4410.54 1624.66C4398.86 1636.81 4387.76 1642.41 4377.25 1624.66C4366.73 1606.91 4373.16 1596.64 4359.72 1610.65C4346.29 1624.66 4336.94 1630.27 4331.69 1624.66C4326.43 1619.06 4327.02 1603.18 4318.84 1610.65C4310.66 1618.12 4313.58 1648.02 4297.81 1631.2C4282.04 1614.39 4265.1 1648.02 4248.75 1614.39C4232.39 1580.76 4239.99 1604.11 4230.06 1614.39C4220.13 1624.66 4223.05 1625.6 4211.95 1619.99C4200.85 1614.39 4213.12 1601.31 4194.43 1610.65C4175.74 1619.99 4167.56 1618.12 4164.06 1610.65C4160.55 1603.18 4157.05 1642.41 4134.85 1631.2C4112.66 1619.99 4123.17 1634 4105.07 1619.99C4086.96 1605.98 4089.88 1629.33 4058.34 1610.65C4026.8 1591.97 4043.74 1616.26 4025.63 1619.99C4007.52 1623.73 4012.78 1664.83 3997.6 1637.74C3982.41 1610.65 4000.52 1616.26 3974.23 1610.65C3947.95 1605.05 3956.71 1604.11 3949.7 1614.39C3942.69 1624.66 3932.18 1629.33 3924 1619.99L3923.72 1619.67C3915.72 1610.52 3911.02 1605.15 3899.47 1614.39C3887.79 1623.73 3894.22 1619.99 3881.37 1625.6C3868.52 1631.2 3867.35 1633.07 3859.17 1621.86C3850.99 1610.65 3850.99 1597.57 3836.98 1604.11C3822.96 1610.65 3791.42 1618.12 3782.07 1614.39C3772.73 1610.65 3772.73 1613.45 3756.96 1625.6C3741.19 1637.74 3742.36 1664.83 3731.84 1639.61C3721.33 1614.39 3726.59 1614.39 3713.74 1614.39H3688.04C3683.95 1614.39 3675.77 1619.99 3672.85 1608.78C3669.93 1597.57 3671.1 1612.52 3656.5 1621.86C3641.89 1631.2 3637.22 1624.66 3635.47 1614.39C3633.72 1604.11 3622.04 1603.18 3620.87 1614.39C3619.7 1625.6 3622.62 1642.41 3608.6 1634C3594.58 1625.6 3589.91 1634.94 3583.49 1621.86C3577.06 1608.78 3592.25 1614.39 3567.13 1614.39C3542.02 1614.39 3533.84 1623.73 3527.42 1614.39C3520.99 1605.05 3499.96 1606.91 3497.63 1614.39C3495.29 1621.86 3491.2 1646.15 3470.18 1634C3449.15 1621.86 3448.56 1601.31 3438.05 1609.72C3427.54 1618.12 3429.29 1614.39 3417.02 1614.39C3407.83 1614.39 3400.28 1617.01 3395.85 1616.36C3397.02 1618.81 3395.73 1621.86 3384.32 1621.86C3361.54 1621.86 3368.55 1612.52 3356.86 1628.4C3345.18 1644.28 3338.76 1646.15 3331.17 1634C3323.57 1621.86 3327.66 1606.91 3314.81 1614.39C3301.96 1621.86 3301.96 1619.99 3295.54 1617.19C3289.11 1614.39 3286.78 1619.06 3277.43 1621.86C3268.08 1624.66 3266.92 1617.19 3261.08 1617.19C3255.24 1617.19 3256.99 1606.91 3248.23 1614.39C3239.47 1621.86 3231.87 1615.32 3226.03 1624.66C3220.19 1634 3219.61 1646.15 3208.51 1634C3197.41 1621.86 3206.76 1611.59 3190.4 1614.39L3189.37 1614.56C3173.42 1617.3 3158.89 1619.8 3160.03 1610.65C3161.16 1601.61 3145.89 1611.81 3138.55 1616.71L3137.84 1617.19C3130.83 1621.86 3130.83 1615.32 3122.07 1610.65C3113.3 1605.98 3102.21 1604.11 3098.12 1610.65C3094.03 1617.19 3095.2 1609.72 3091.11 1621.86C3087.02 1634 3082.93 1654.55 3075.34 1644.28C3071.95 1639.69 3066.93 1631.38 3062.32 1623.37C3058.08 1615.99 3044.79 1611.46 3036.79 1614.39C3016.35 1621.86 3004.08 1619.99 2998.24 1617.19C2992.4 1614.39 2989.48 1612.52 2979.55 1617.19C2960.81 1626 2940.33 1609.69 2940.25 1588.98L2934 30.8583C2934 29.8204 2934.84 28.9768 2935.87 28.9768C2936.17 28.9768 2936.47 29.0483 2936.73 29.1853Z" fill="#A26E42" stroke="black" stroke-width="3"/>
</g>
</svg>
