<svg width="1440" height="1654" viewBox="0 0 1440 1654" fill="none" xmlns="http://www.w3.org/2000/svg">
<path d="M-29.2594 31.1853L-27.9721 31.8495C-21.8226 35.022 -14.5132 28.534 -11.8044 22.1666C-10.3668 18.7871 -7.6107 16.3162 -2.79612 16.0311C12.974 15.0969 26.9919 21.6357 32.8326 30.9768C38.6734 40.3179 33.4167 49.659 45.0983 40.3179C56.7798 30.9768 67.2932 30.9768 74.3021 30.9768C81.3111 30.9768 78.3907 45.9225 96.4971 30.9768C114.603 16.0311 120.444 -16.6627 137.967 16.0311C155.489 48.7248 156.657 45.9225 168.923 30.9768C181.188 16.0311 189.365 8.55823 198.127 30.9768C206.888 53.3954 210.392 45.9225 229.667 30.9768C248.941 16.0311 242.516 8.55823 262.375 30.9768C282.234 53.3954 278.729 30.9768 302.092 30.9768C325.456 30.9768 334.801 30.9768 349.403 40.3179C364.005 49.6589 375.686 30.9767 389.704 23.5039C403.722 16.0311 398.465 -8.25577 417.156 16.0311C435.846 40.3179 449.28 54.3295 455.121 44.0543C460.962 33.7791 459.793 21.6356 465.634 26.3062C471.475 30.9768 482.572 36.5815 483.741 40.3179C484.909 44.0543 496.59 49.6589 507.688 34.7132C518.785 19.7674 524.042 15.0969 529.299 23.5039C534.555 31.9109 542.732 53.3953 549.157 34.7132C555.582 16.0311 551.494 5.7559 562.007 16.0311C572.52 26.3062 577.777 51.5272 595.299 40.3179C612.822 29.1085 608.733 15.0969 618.662 26.3062C628.592 37.5155 626.256 47.7907 632.68 44.0543C639.105 40.3179 644.362 26.3062 651.371 23.5039C658.38 20.7016 677.654 27.2403 680.575 38.4496C683.495 49.6589 689.92 57.1319 691.672 40.3179C693.424 23.5039 700.433 23.5039 704.522 30.9768C713.459 47.3109 737.113 28.6209 753.195 38.0039C754.274 38.6335 755.08 39.422 755.921 40.3179C759.425 44.0543 762.93 38.4496 771.691 34.7132C780.452 30.9768 779.284 21.6357 796.806 26.3062C814.329 30.9768 824.258 54.3296 829.515 40.3179C834.771 26.3062 847.621 29.1085 850.541 34.7132C853.462 40.3179 848.789 43.1202 856.966 34.7132C865.143 26.3062 868.064 25.3721 873.32 30.0426C878.577 34.7132 879.161 40.3178 885.002 42.1861C890.843 44.0543 894.347 44.9884 903.692 34.7132C913.038 24.438 917.126 17.8992 920.631 26.3062C924.135 34.7132 922.383 17.8992 935.817 26.3062C939.024 28.3137 942.132 30.7472 945.053 33.149C956.564 42.6155 975.232 35.175 988.384 42.1861C991.888 44.0543 990.136 17.8992 1004.15 26.3062C1018.17 34.7132 1015.84 50.593 1025.18 38.4496C1034.53 26.3062 1039.78 23.5038 1046.79 31.9109C1052.37 38.6079 1062.04 8.55359 1071.64 16.8273C1076.32 20.8566 1088.31 22.4384 1090.6 28.1744C1094.69 38.4496 1092.93 48.7248 1099.94 38.4496C1106.95 28.1744 1111.04 19.7674 1114.54 28.1744C1118.05 36.5814 1121.55 28.1744 1125.64 26.3062C1129.73 24.438 1137.91 15.0969 1140.24 22.5698C1142.58 30.0426 1151.93 34.7132 1153.09 36.5814C1154.26 38.4496 1156.01 35.6473 1162.44 30.0426C1168.86 24.438 1171.2 30.9768 1175.29 35.6473C1178.94 39.8231 1187.74 -5.28312 1209.18 22.5C1211.02 24.8885 1220.2 25.7612 1222.01 28.1744C1229.02 37.5155 1229.61 39.3837 1231.94 35.6473C1234.28 31.9109 1232.53 23.5039 1239.54 28.1744C1246.55 32.845 1250.05 35.6473 1250.63 35.6473C1251.22 35.6473 1257.06 25.3721 1259.98 25.3721C1262.9 25.3721 1271.08 27.2403 1273.41 32.845C1275.75 38.4496 1270.49 36.5814 1283.34 32.845C1296.19 29.1085 1295.61 28.1744 1298.53 31.9109C1301.45 35.6473 1301.45 45.9225 1306.71 34.7132C1311.96 23.5039 1323.06 4.82171 1334.16 16.9651C1345.26 29.1085 1350.51 32.845 1354.02 34.7132C1357.52 36.5814 1356.94 30.9768 1359.27 29.1085C1361.61 27.2403 1362.19 27.2403 1370.95 30.9768C1379.72 34.7132 1384.39 9.49226 1394.32 26.3062C1404.15 42.9634 1409.41 31.2006 1412.34 24.6223L1412.42 24.438C1415.34 17.8992 1414.76 11.3605 1421.77 17.8992C1428.78 24.438 1427.61 41.2519 1438.12 24.438C1448.64 7.62404 1445.13 4.82173 1452.73 5.75584C1462.78 6.99234 1467.93 17.5236 1467.95 27.6504L1471.95 1597.03C1471.98 1609.57 1462.88 1627.02 1456.23 1616.39C1449.22 1605.18 1456.23 1614.52 1444.55 1626.66C1432.87 1638.81 1421.77 1644.41 1411.26 1626.66C1400.74 1608.91 1407.17 1598.64 1393.73 1612.65C1380.3 1626.66 1370.95 1632.27 1365.7 1626.66C1360.44 1621.06 1361.03 1605.18 1352.85 1612.65C1344.67 1620.12 1347.59 1650.02 1331.82 1633.2C1316.05 1616.39 1299.11 1650.02 1282.76 1616.39C1266.4 1582.76 1274 1606.11 1264.07 1616.39C1254.14 1626.66 1257.06 1627.6 1245.96 1621.99C1234.86 1616.39 1247.13 1603.31 1228.44 1612.65C1209.75 1621.99 1201.57 1620.12 1198.07 1612.65C1194.56 1605.18 1191.06 1644.41 1168.86 1633.2C1146.67 1621.99 1157.18 1636 1139.08 1621.99C1120.97 1607.98 1123.89 1631.33 1092.35 1612.65C1060.81 1593.97 1077.75 1618.26 1059.64 1621.99C1041.53 1625.73 1046.79 1666.83 1031.61 1639.74C1016.42 1612.65 1034.53 1618.26 1008.24 1612.65C981.959 1607.05 990.72 1606.11 983.711 1616.39C976.702 1626.66 966.189 1631.33 958.012 1621.99L957.73 1621.67C949.726 1612.52 945.027 1607.15 933.48 1616.39C921.799 1625.73 928.224 1621.99 915.374 1627.6C902.524 1633.2 901.356 1635.07 893.179 1623.86C885.002 1612.65 885.002 1599.57 870.984 1606.11C856.966 1612.65 825.426 1620.12 816.081 1616.39C806.736 1612.65 806.736 1615.45 790.965 1627.6C775.195 1639.74 776.364 1666.83 765.85 1641.61C755.337 1616.39 760.593 1616.39 747.744 1616.39H722.044C717.956 1616.39 709.779 1621.99 706.858 1610.78C703.938 1599.57 705.106 1614.52 690.504 1623.86C675.902 1633.2 671.23 1626.66 669.477 1616.39C667.725 1606.11 656.043 1605.18 654.875 1616.39C653.707 1627.6 656.628 1644.41 642.61 1636C628.592 1627.6 623.919 1636.94 617.494 1623.86C611.069 1610.78 626.256 1616.39 601.14 1616.39C576.025 1616.39 567.848 1625.73 561.423 1616.39C554.998 1607.05 533.971 1608.91 531.635 1616.39C529.299 1623.86 525.21 1648.15 504.183 1636C483.156 1623.86 482.572 1603.31 472.059 1611.72C461.546 1620.12 463.298 1616.39 451.032 1616.39C441.841 1616.39 434.29 1619.01 429.853 1618.36C431.032 1620.81 429.733 1623.86 418.324 1623.86C395.545 1623.86 402.554 1614.52 390.872 1630.4C379.191 1646.28 372.766 1648.15 365.173 1636C357.58 1623.86 361.668 1608.91 348.819 1616.39C335.969 1623.86 335.969 1621.99 329.544 1619.19C323.119 1616.39 320.783 1621.06 311.438 1623.86C302.092 1626.66 300.924 1619.19 295.083 1619.19C289.243 1619.19 290.995 1608.91 282.234 1616.39C273.473 1623.86 265.88 1617.32 260.039 1626.66C254.198 1636 253.614 1648.15 242.517 1636C231.419 1623.86 240.764 1613.59 224.41 1616.39L223.381 1616.56C207.425 1619.3 192.894 1621.8 194.038 1612.65C195.168 1603.61 179.901 1613.81 172.558 1618.71L171.843 1619.19C164.834 1623.86 164.834 1617.32 156.073 1612.65C147.312 1607.98 136.214 1606.11 132.126 1612.65C128.037 1619.19 129.205 1611.72 125.117 1623.86C121.028 1636 116.94 1656.55 109.347 1646.28C105.953 1641.69 100.942 1633.38 96.3321 1625.37C92.0853 1617.99 78.7944 1613.46 70.7977 1616.39C50.3549 1623.86 38.0893 1621.99 32.2485 1619.19C26.4078 1616.39 23.4874 1614.52 13.5581 1619.19C-5.17975 1628 -25.6577 1611.69 -25.7408 1590.98L-31.9925 32.8583C-31.9966 31.8204 -31.1564 30.9768 -30.1186 30.9768C-29.8197 30.9768 -29.5251 31.0483 -29.2594 31.1853Z" fill="#A26E42" stroke="black" stroke-width="3"/>
</svg>
