<svg width="893" height="625" viewBox="0 0 893 625" fill="none" xmlns="http://www.w3.org/2000/svg">
<path d="M32.9759 8.47336C33.8863 7.79988 35.2001 7.35318 37.0464 7.28078C46.0114 6.92921 53.9803 9.39017 57.3007 12.9058C60.6211 16.4215 57.6328 19.9371 64.2735 16.4215C70.9143 12.9058 76.891 12.9058 80.8755 12.9058C84.8599 12.9058 83.1997 18.5308 93.493 12.9058C103.786 7.28078 107.107 -5.02396 117.068 7.28078C127.029 19.5855 127.693 18.5308 134.666 12.9058C141.639 7.28078 146.287 4.46828 151.268 12.9058C156.248 21.3433 158.241 18.5308 169.198 12.9058C180.155 7.28078 176.503 4.46828 187.792 12.9058C199.081 21.3433 197.089 12.9058 210.371 12.9058C223.652 12.9058 228.965 12.9058 237.266 16.4215C245.567 19.9371 252.208 12.9058 260.176 10.0933C268.145 7.28078 265.157 -1.8599 275.782 7.28078C286.408 16.4215 294.044 21.6949 297.365 17.8277C300.685 13.9605 300.021 9.39014 303.341 11.148C306.662 12.9058 312.971 15.0152 313.635 16.4215C314.299 17.8277 320.94 19.9371 327.248 14.3121C333.557 8.68702 336.545 6.9292 339.534 10.0933C342.522 13.2574 347.171 21.3433 350.823 14.3121C354.475 7.28078 352.151 3.41359 358.128 7.28078C364.105 11.148 367.093 20.6402 377.054 16.4215C387.015 12.2027 384.691 6.9292 390.336 11.148C395.98 15.3667 394.652 19.2339 398.305 17.8277C401.957 16.4215 404.945 11.148 408.93 10.0933C412.914 9.03859 423.872 11.4995 425.532 15.7183C427.192 19.9371 430.844 22.7496 431.841 16.4215C432.837 10.0933 436.821 10.0933 439.145 12.9058C445 19.9902 455.575 14.0387 464.707 15.076C466.633 15.2948 467.465 15.7864 468.365 16.4215C470.357 17.8277 472.349 15.7183 477.33 14.3121C482.31 12.9058 481.646 9.39015 491.608 11.148C501.569 12.9058 507.213 21.6949 510.202 16.4215C513.19 11.148 520.495 12.2027 522.155 14.3121C523.815 16.4215 521.159 17.4761 525.808 14.3121C530.456 11.148 532.116 10.7964 535.105 12.5542C538.093 14.3121 538.425 16.4214 541.745 17.1246C545.066 17.8277 547.058 18.1793 552.371 14.3121C557.683 10.4448 560.008 7.98389 562 11.148C563.992 14.3121 562.996 7.98389 570.633 11.148C572.034 11.7286 573.402 12.4039 574.714 13.0957C582.258 17.0744 592.474 14.286 600.516 17.1246C602.508 17.8277 601.512 7.98389 609.481 11.148C617.45 14.3121 616.122 20.2887 621.435 15.7183C626.747 11.148 629.736 10.0933 633.72 13.2574C636.715 15.6358 641.774 5.69754 646.923 7.18637C650.484 8.21637 656.713 8.67327 658.623 11.8511C660.947 15.7183 659.951 19.5855 663.936 15.7183C667.92 11.8511 670.244 8.68702 672.237 11.8511C674.229 15.0152 676.221 11.8511 678.545 11.148C680.87 10.4448 685.518 6.9292 686.846 9.74172C688.174 12.5542 693.487 14.3121 694.151 15.0152C694.815 15.7183 695.811 14.6636 699.464 12.5542C703.116 10.4448 704.444 12.9058 706.769 14.6636C708.856 16.2422 713.889 -0.8924 726.196 9.85654C727.427 10.9313 732.107 10.7701 733.332 11.8511C737.316 15.3667 737.648 16.0699 738.976 14.6636C740.304 13.2574 739.308 10.0933 743.293 11.8511C747.277 13.6089 749.27 14.6636 749.602 14.6636C749.934 14.6636 753.254 10.7964 754.914 10.7964C756.575 10.7964 761.223 11.4995 762.551 13.6089C763.879 15.7183 760.891 15.0152 768.196 13.6089C775.501 12.2027 775.169 11.8511 776.829 13.2574C778.489 14.6636 778.489 18.5308 781.477 14.3121C784.466 10.0933 790.775 3.06199 797.083 7.63233C803.392 12.2027 806.38 13.6089 808.372 14.3121C810.365 15.0152 810.033 12.9058 811.361 12.2027C812.689 11.4995 813.021 11.4995 818.002 12.9058C822.982 14.3121 825.639 4.81981 831.283 11.148C836.875 17.4171 839.86 12.9901 841.53 10.5142L841.576 10.4448C843.237 7.98389 842.905 5.52294 846.889 7.98389C850.873 10.4448 850.209 16.773 856.186 10.4448C861.06 5.2847 866.27 7.55015 868.15 14.3943C868.95 17.3058 869.63 20.3296 869.944 23C870.944 31.5 867.902 30.5 869.944 45.5C871.987 60.5 856.186 71.5 856.186 73.5C856.186 74.2772 860.14 75.4791 863.863 77.1974C870.199 80.1215 869.944 88.1328 869.944 95.1108C869.944 98.03 869.646 100.934 869.152 103.811C868.356 108.439 867.577 113.963 867.161 119.142C866.183 131.339 879.944 136.764 879.944 149C879.944 152.5 872.944 162 872.944 164C872.944 166 875.444 181.5 876.444 183.5C877.444 185.5 886.944 193.5 883.444 200C879.944 206.5 880.444 222.5 886.444 219.5C889.933 217.756 888.35 221.541 886.073 225.403C884.437 228.178 882.104 230.457 879.483 232.33C875.21 235.382 869.92 239.82 871.59 244.797C871.81 245.453 872.235 245.899 872.944 246C881.479 247.219 885.992 257.513 886.411 266.124C886.433 266.581 886.444 267.04 886.444 267.5C886.444 275 877.944 295 876.444 300.5C874.944 306 896.444 327 886.444 330C880.52 331.777 878.133 340.396 882.865 344.38L886.928 347.802C888.245 348.911 889.22 350.372 889.738 352.014L890.084 353.109C891.262 356.838 890.704 360.898 888.564 364.171L887.552 365.717C884.936 369.718 884.179 374.63 885.097 379.321C885.821 383.022 886.444 387.098 886.444 390C886.444 396.5 872.944 403.5 888.944 411C892.994 412.898 879.111 420.333 880.444 427L882.442 437.152C885.084 450.587 883.444 464.308 883.444 478C883.444 483.5 874.479 491 886.444 495.5C898.409 500 877.444 508 880.444 515.5C883.444 523 880.444 521.5 880.444 531.5C880.444 541.5 875.444 567.5 875.444 569.5V606C875.444 608.281 874.48 610.656 872.274 611.236C870.467 611.712 868.318 611.544 866.479 609.597C862.495 605.378 866.479 608.894 859.839 613.464C853.198 618.034 846.889 620.144 840.912 613.464C834.936 606.784 838.588 602.917 830.951 608.19C823.314 613.464 818.002 615.573 815.013 613.464C812.025 611.355 812.357 605.378 807.709 608.19C803.06 611.003 804.72 622.253 795.755 615.925C786.79 609.597 777.161 622.253 767.864 609.597C758.567 596.94 762.883 605.73 757.239 609.597C751.594 613.464 753.254 613.816 746.945 611.706C740.637 609.597 747.609 604.675 736.984 608.19C726.359 611.706 721.711 611.003 719.718 608.19C717.726 605.378 715.734 620.144 703.116 615.925C690.499 611.706 696.475 616.98 686.182 611.706C675.889 606.433 677.549 615.222 659.619 608.19C641.689 601.159 651.318 610.3 641.025 611.706C630.732 613.112 633.72 628.581 625.087 618.386C616.454 608.191 626.747 610.3 611.806 608.19C596.864 606.081 601.844 605.73 597.86 609.597C593.875 613.464 587.899 615.222 583.25 611.706L583.09 611.585C578.54 608.143 575.869 606.122 569.305 609.597C562.664 613.112 566.316 611.706 559.011 613.816C551.707 615.925 551.042 616.628 546.394 612.409C541.745 608.191 541.745 603.269 533.776 605.73C525.807 608.19 507.877 611.003 502.565 609.597C497.252 608.191 497.252 609.245 488.287 613.816C479.322 618.386 479.986 628.581 474.009 619.089C468.033 609.597 471.021 609.597 463.716 609.597H449.107C446.782 609.597 442.134 611.706 440.474 607.487C438.813 603.269 439.477 608.894 431.176 612.409C422.875 615.925 420.219 613.464 419.223 609.597C418.227 605.73 411.586 605.378 410.922 609.597C410.258 613.816 411.918 620.144 403.949 616.98C395.98 613.816 393.324 617.331 389.672 612.409C386.019 607.487 394.652 609.597 380.375 609.597C366.097 609.597 361.448 613.112 357.796 609.597C354.143 606.081 342.19 606.784 340.862 609.597C339.534 612.409 337.209 621.55 325.256 616.98C313.303 612.409 312.971 604.675 306.994 607.839C301.017 611.003 302.013 609.597 295.041 609.597C289.816 609.597 285.523 610.584 283.001 610.339C283.671 611.263 282.932 612.409 276.446 612.409C263.497 612.409 267.481 608.894 260.841 614.87C254.2 620.847 250.547 621.55 246.231 616.98C241.914 612.409 244.239 606.784 236.934 609.597C229.629 612.409 229.629 611.706 225.976 610.651C222.324 609.597 220.996 611.355 215.683 612.409C210.371 613.464 209.707 610.651 206.386 610.651C203.066 610.651 204.062 606.784 199.081 609.597C194.101 612.409 189.784 609.948 186.464 613.464C183.143 616.98 182.811 621.55 176.503 616.98C170.194 612.409 175.507 608.542 166.209 609.597L165.625 609.663C156.554 610.694 148.293 611.632 148.943 608.19C149.608 604.675 140.31 608.894 136.326 610.651C132.342 612.409 132.341 609.948 127.361 608.19C122.38 606.433 116.072 605.73 113.747 608.19C111.423 610.651 112.087 607.839 109.763 612.409C107.439 616.98 105.114 624.714 100.798 620.847C99.204 619.419 96.983 617.037 94.7812 614.552C92.0736 611.497 82.8514 608.636 78.8832 609.597C67.2619 612.409 60.2891 611.706 56.9687 610.651C53.6483 609.597 51.9881 608.894 46.3434 610.651C34.6634 614.289 23.0078 605.07 22.0275 592.876C21.8697 590.913 21.7726 589.501 21.7726 589C21.7726 586.5 21.7726 582.5 24.0968 577.5C26.4211 572.5 26.4443 569.5 26.4443 561C26.4443 559.043 24.0926 550.08 23.3037 548.289C19.864 540.481 15.9444 528.17 15.9444 515C15.9444 505.5 21.7726 501 21.7726 490C21.7726 479 26.4443 478.5 29.9443 471.5C33.4443 464.5 15.9444 472.5 26.4443 450.5C36.9442 434 29.9443 442.5 29.9443 431.5C29.9443 420.5 15.9444 424.5 21.7726 397C24.6008 379.5 21.7726 390 21.7726 379.5V359.5C21.7726 352.924 28.9836 347.231 23.084 339.519C22.2865 338.477 20.3474 337.977 20.1629 336.677C19.8568 334.52 21.7726 332.736 21.7726 330.557V326.5C21.7726 326 25.9443 319.5 29.9443 313C31.4366 310.575 28.9276 307.186 25.0135 303.837C17.1822 297.136 12.685 286.778 15.9444 277C18.4446 269.5 18.9443 268 21.7726 259C25.8911 245.894 10.4723 234.908 14.7144 221.841C15.3946 219.746 15.9444 218.017 15.9444 217C15.9444 214.465 18.2844 205.507 18.5163 196.103C18.7753 185.601 13.6672 176.031 4.44444 171C-1.05556 168 4.44444 166 4.44444 152.5C4.44444 139 21.7726 147.5 15.9444 134C10.1163 120.5 15.9444 122.5 9.94444 112C3.94444 101.5 9.94444 103 9.94444 98C9.94444 93 4.44444 83 9.94444 73.5C15.4444 64 17.4444 63.5 15.9444 60C14.4444 56.5 12.9444 43 9.94444 37.5C7.22261 32.51 7.70659 25.9701 11.8714 22.1019L20.1359 14.4259C21.1438 13.4898 22.5846 13.1832 23.8863 13.6278C26.9844 14.6859 30.3439 10.4203 32.9759 8.47336Z" fill="#006ED4" stroke="black" stroke-width="3"/>
</svg>
