<svg width="1440" height="146" viewBox="0 0 1440 146" fill="none" xmlns="http://www.w3.org/2000/svg">
<path d="M-62.3331 12.2492L-61.6127 12.3988C-55.3286 13.704 -40.8673 6.06184 -34.4509 5.90884C-17.9544 5.51546 -3.29089 8.2691 2.81892 12.2029C8.92874 16.1366 3.42991 20.0704 15.6495 16.1366C27.8692 12.2029 38.8668 12.2029 46.1986 12.2029C53.5304 12.2029 50.4755 18.4969 69.4159 12.2029C88.3563 5.90884 94.4661 -7.85935 112.796 5.90884C131.125 19.677 132.347 18.4969 145.178 12.2029C158.008 5.90884 166.562 2.76184 175.727 12.2029C184.891 21.6439 188.557 18.4969 208.72 12.2029C228.882 5.90884 222.161 2.76184 242.935 12.2029C263.708 21.6439 260.042 12.2029 284.481 12.2029C308.921 12.2029 318.696 12.2029 333.971 16.1366C349.245 20.0704 361.465 12.2028 376.129 9.05584C390.792 5.90884 385.293 -4.31897 404.845 5.90884C424.396 16.1366 438.449 22.0373 444.558 17.7101C450.668 13.383 449.446 8.26907 455.556 10.236C461.666 12.2029 473.275 14.5632 474.497 16.1366C475.719 17.7101 487.938 20.0704 499.547 13.7764C511.155 7.48233 516.654 5.51544 522.153 9.05584C527.652 12.5962 536.206 21.6439 542.926 13.7764C549.647 5.90884 545.37 1.58171 556.368 5.90884C567.366 10.236 572.865 20.8572 591.194 16.1366C609.523 11.4161 605.246 5.51544 615.633 10.236C626.02 14.9565 623.576 19.2836 630.297 17.7101C637.018 16.1366 642.516 10.236 649.848 9.05584C657.18 7.87571 677.342 10.6293 680.397 15.3499C683.452 20.0704 690.173 23.2175 692.006 16.1366C693.839 9.05584 701.171 9.05584 705.447 12.2029C717.815 21.3034 734.635 14.1378 749.986 14.5192C755.395 14.6536 757.213 15.278 759.214 16.1366C762.88 17.7101 766.546 15.3499 775.71 13.7764C784.875 12.2029 783.653 8.26908 801.982 10.236C820.312 12.2029 830.699 22.0373 836.197 16.1366C841.696 10.236 855.138 11.4161 858.193 13.7764C861.248 16.1366 856.36 17.3168 864.914 13.7764C873.467 10.236 876.522 9.84259 882.021 11.8095C887.52 13.7764 888.131 16.1366 894.241 16.9234C900.35 17.7101 904.016 18.1035 913.792 13.7764C923.568 9.44922 927.845 6.69558 931.511 10.236C935.176 13.7764 933.343 6.69558 947.396 10.236C949.444 10.7519 951.453 11.3347 953.402 11.9405C968.702 16.6952 986.72 13.5616 1002.38 16.9234C1006.05 17.7101 1004.22 6.69558 1018.88 10.236C1033.54 13.7764 1031.1 20.4638 1040.88 15.3499C1050.65 10.236 1056.15 9.05582 1063.48 12.5962C1068.7 15.116 1077.32 5.28151 1086.27 5.64189C1093.58 5.93657 1104.16 5.81753 1109.31 11.0227C1113.58 15.3499 1111.75 19.677 1119.08 15.3499C1126.41 11.0227 1130.69 7.48233 1134.36 11.0227C1138.02 14.5631 1141.69 11.0227 1145.96 10.236C1150.24 9.44922 1158.8 5.51544 1161.24 8.66246C1163.68 11.8095 1173.46 13.7764 1174.68 14.5631C1175.9 15.3499 1177.74 14.1697 1184.46 11.8095C1191.18 9.44922 1193.62 12.2029 1197.9 14.1697C1201.77 15.9522 1211.17 -3.58772 1234.27 9.1277C1236.66 10.442 1244.38 9.73415 1246.78 11.0227C1254.11 14.9565 1254.72 15.7433 1257.16 14.1697C1259.61 12.5962 1257.77 9.05584 1265.11 11.0227C1272.44 12.9896 1276.1 14.1697 1276.71 14.1697C1277.33 14.1697 1283.44 9.84259 1286.49 9.84259C1289.55 9.84259 1298.1 10.6293 1300.54 12.9896C1302.99 15.3499 1297.49 14.5631 1310.93 12.9896C1324.37 11.4161 1323.76 11.0227 1326.82 12.5962C1329.87 14.1697 1329.87 18.4969 1335.37 13.7764C1340.87 9.05584 1352.48 1.1883 1364.09 6.3022C1375.69 11.4161 1381.19 12.9896 1384.86 13.7764C1388.52 14.5631 1387.91 12.2029 1390.36 11.4161C1392.8 10.6293 1393.41 10.6293 1402.58 12.2029C1411.74 13.7764 1416.63 3.15518 1427.02 10.236C1437.31 17.2509 1442.8 12.297 1445.87 9.5267L1445.96 9.44922C1449.01 6.69558 1448.4 3.94194 1455.73 6.69558C1463.06 9.44922 1461.84 16.53 1472.84 9.44922C1483.84 2.36843 1480.17 1.1883 1488.11 1.58167C1497.51 2.04694 1503.87 10.6152 1503.69 20.0192L1501.89 113.801C1501.68 124.397 1493.97 136.74 1485.06 131.003C1477.73 126.282 1485.06 130.216 1472.84 135.33C1460.62 140.444 1449.01 142.804 1438.01 135.33C1427.02 127.856 1433.74 123.529 1419.68 129.429C1405.63 135.33 1395.86 137.69 1390.36 135.33C1384.86 132.97 1385.47 126.282 1376.92 129.429C1368.36 132.576 1371.42 145.164 1354.92 138.084C1338.42 131.003 1320.71 145.164 1303.6 131.003C1286.49 116.841 1294.43 126.676 1284.05 131.003C1273.66 135.33 1276.71 135.723 1265.11 133.363C1253.5 131.003 1266.33 125.495 1246.78 129.429C1227.23 133.363 1218.67 132.576 1215.01 129.429C1211.34 126.282 1207.67 142.804 1184.46 138.084C1161.24 133.363 1172.24 139.264 1153.3 133.363C1134.36 127.462 1137.41 137.297 1104.42 129.429C1071.43 121.562 1089.14 131.79 1070.2 133.363C1051.26 134.937 1056.76 152.245 1040.88 140.837C1024.99 129.429 1043.93 131.79 1016.44 129.429C988.943 127.069 998.108 126.676 990.776 131.003C983.444 135.33 972.446 137.297 963.893 133.363L963.598 133.227C955.225 129.376 950.31 127.114 938.231 131.003C926.012 134.937 932.732 133.363 919.291 135.723C905.849 138.084 904.627 138.87 896.074 134.15C887.52 129.429 887.52 123.922 872.856 126.676C858.193 129.429 825.2 132.576 815.424 131.003C805.648 129.429 805.648 130.609 789.152 135.723C772.655 140.837 773.877 152.245 762.88 141.624C751.882 131.003 757.381 131.003 743.939 131.003H717.056C712.779 131.003 704.226 133.363 701.171 128.643C698.116 123.922 699.338 130.216 684.063 134.15C668.789 138.084 663.901 135.33 662.068 131.003C660.235 126.676 648.015 126.282 646.793 131.003C645.571 135.723 648.626 142.804 633.963 139.264C619.299 135.723 614.411 139.657 607.69 134.15C600.97 128.643 616.855 131.003 590.583 131.003C564.311 131.003 555.757 134.937 549.036 131.003C542.315 127.069 520.32 127.856 517.876 131.003C515.432 134.15 511.155 144.378 489.16 139.264C467.165 134.15 466.554 125.495 455.556 129.036C444.558 132.576 446.391 131.003 433.561 131.003C423.947 131.003 416.048 132.107 411.406 131.833C412.639 132.867 411.281 134.15 399.346 134.15C375.518 134.15 382.849 130.216 370.63 136.903C358.41 143.591 351.689 144.378 343.746 139.264C335.804 134.15 340.081 127.856 326.639 131.003C313.197 134.15 313.197 133.363 306.477 132.183C299.756 131.003 297.312 132.97 287.536 134.15C277.761 135.33 276.539 132.183 270.429 132.183C264.319 132.183 266.152 127.856 256.987 131.003C247.822 134.15 239.88 131.396 233.77 135.33C227.66 139.264 227.049 144.378 215.44 139.264C203.832 134.15 213.607 129.823 196.5 131.003L195.423 131.077C178.732 132.23 163.533 133.28 164.729 129.429C165.951 125.495 148.843 130.216 141.512 132.183C134.18 134.15 134.18 131.396 125.015 129.429C115.85 127.462 104.242 126.676 99.965 129.429C95.6881 132.183 96.91 129.036 92.6332 134.15C88.3563 139.264 84.0795 147.918 76.1367 143.591C73.8694 142.356 70.9124 140.483 67.8153 138.412C62.9647 135.168 41.5849 130.153 35.8119 131.003C14.4276 134.15 1.59696 133.363 -4.51285 132.183C-10.6227 131.003 -13.6776 130.216 -24.0643 132.183C-45.6819 136.277 -65 118.383 -65 96.3807V14.4191C-65 13.1951 -64.0078 12.2029 -62.7838 12.2029C-62.6324 12.2029 -62.4814 12.2184 -62.3331 12.2492Z" fill="white" stroke="black" stroke-width="3"/>
</svg>
