<svg width="133" height="133" viewBox="0 0 133 133" fill="none" xmlns="http://www.w3.org/2000/svg">
<path d="M99.9809 19.5114C101.135 20.6198 102.382 21.6819 103.491 22.9057C107.647 27.57 111.803 32.2573 115.89 36.9677C118.245 39.6924 118.222 41.3549 115.705 43.8948C109.633 50.0368 103.491 56.1326 97.3256 62.1823C90.1907 69.2248 83.0789 76.2904 75.8285 83.1944C66.7771 91.8302 58.0028 100.743 48.328 108.686C46.4808 110.187 44.4488 111.457 42.5092 112.842C40.8698 114.02 38.9995 114.366 37.0369 114.389C33.3655 114.412 29.6711 114.412 25.9997 114.343C23.529 114.297 21.0584 114.089 18.5877 113.905C16.8329 113.766 16.1402 113.166 15.7476 111.434C14.8933 107.67 15.4474 104.23 18.7724 101.828C20.5042 100.558 21.5895 98.9651 22.1667 96.9793C22.998 94.07 23.8985 91.1837 24.5912 88.2512C25.3994 84.9031 27.108 82.2708 29.7403 80.0311C32.8806 77.3526 35.7438 74.3278 38.7686 71.5338C53.6157 57.8182 68.4858 44.1026 83.379 30.4101C86.427 27.6161 89.5672 24.9146 92.7306 22.2592C95.5476 19.8347 97.6257 17.1101 99.9809 19.5114ZM57.7719 94.347C61.8589 90.6295 65.8997 87.166 69.6865 83.4484C82.0629 71.3953 94.3469 59.2498 106.677 47.1274C108.755 45.0724 110.856 43.0635 113.004 40.9854C107.855 34.8434 102.821 28.8399 97.8105 22.8826C79.2459 41.2163 60.0809 58.6495 40.9391 75.9441C46.9426 81.555 52.2533 87.7663 57.7719 94.347ZM38.607 78.1607C37.5448 78.992 36.6212 79.8925 35.536 80.5621C32.3264 82.5479 30.3638 85.4573 29.1862 88.9208C27.9855 92.3844 26.9002 95.871 25.7457 99.3576C25.0068 101.574 23.8985 103.56 21.8665 104.876C19.8808 106.146 19.419 107.901 19.9962 110.326C25.561 110.51 31.1257 110.672 36.9676 110.857C43.0403 107.047 49.1592 102.775 54.5855 97.4411C48.836 91.2068 43.5714 84.88 38.607 78.1607Z" fill="white"/>
</svg>
