<svg width="30" height="20" viewBox="0 0 30 20" fill="none" xmlns="http://www.w3.org/2000/svg">
<path d="M1.93042 1.7591C4.15886 1.7591 6.5985 1.47832 8.80156 1.77206C10.4723 1.99482 11.8228 2.92589 13.5984 2.92589C14.5923 2.92589 15.5863 2.92589 16.5802 2.92589C17.6205 2.92589 19.3373 2.38238 20.2491 1.87578C20.6903 1.6307 21.388 1.7591 21.8827 1.7591C23.5551 1.7591 25.2275 1.7591 26.8999 1.7591" stroke="black" stroke-width="2" stroke-linecap="round"/>
<path d="M1.93042 9.2269C6.1929 9.2269 10.4802 9.09789 14.7393 9.23986C18.5801 9.36789 22.3371 9.69362 26.1998 9.69362" stroke="black" stroke-width="2" stroke-linecap="round"/>
<path d="M0.996826 18.3279C9.36849 18.3128 17.8191 18.5693 26.1608 17.8741C27.1153 17.7946 28.0396 17.6278 29 17.6278" stroke="black" stroke-width="2" stroke-linecap="round"/>
</svg>
