<svg width="196" height="196" viewBox="0 0 196 196" fill="none" xmlns="http://www.w3.org/2000/svg">
<mask id="path-1-outside-1_1_67" maskUnits="userSpaceOnUse" x="28.0164" y="11.544" width="158" height="172" fill="black">
<rect fill="white" x="28.0164" y="11.544" width="158" height="172"/>
<path d="M141.063 12.544C141.733 13.1057 141.568 14.4647 140.809 15.0834C139.637 16.0386 138.446 16.986 137.364 18.0395C136.481 18.8989 135.819 19.9861 134.928 20.8326C133.269 22.4064 131.511 23.8819 129.792 25.3962C129.51 25.6447 129.213 25.8751 128.951 26.1417C126.052 29.0771 122.966 31.8055 119.824 34.4795C117.028 36.8583 114.321 39.3537 111.97 42.2115C110.715 43.7387 109.055 44.8337 107.347 45.8148C105.421 46.9201 103.459 47.9607 101.52 49.0453C100.389 49.6769 99.2318 50.2774 98.155 50.9996C96.7339 51.9522 95.2454 52.7262 93.5784 53.1041C90.8993 53.7125 88.5411 55.0249 86.1829 56.3606C84.024 57.5849 81.7357 58.4573 79.3543 59.2054C76.9676 59.9561 74.7026 61.1675 72.4816 62.3582C70.6722 63.3264 69.044 64.631 67.2605 65.6587C65.6763 66.5724 64.0145 67.3671 62.3448 68.1152C60.4293 68.972 58.4465 69.6813 56.5258 70.5303C53.7379 71.7599 51.1649 73.3208 49.1898 75.71C48.2113 76.893 47.1371 78.0242 46.332 79.3185C44.8514 81.6974 44.9471 84.7933 46.6634 87.0712C47.2975 87.9125 48.2191 87.7572 49.0992 87.7054C49.3529 87.6899 49.604 87.6045 49.855 87.6071C53.2564 87.6381 56.5025 86.89 59.5259 85.3861C63.6107 83.3541 67.6229 81.1745 71.6688 79.0596C72.2021 78.7827 72.7353 78.5005 73.2919 78.2779C73.4938 78.1976 73.7604 78.2831 73.9985 78.2908L73.983 78.485L75.0599 77.7964L75.2152 77.9181C75.1608 78.1795 75.1608 78.4669 75.0443 78.6972C72.6085 83.5378 70.2167 88.381 68.635 93.6073C67.8507 96.2037 66.5979 98.6654 65.5003 101.161C63.4139 105.906 61.2939 110.635 59.1764 115.364C58.2213 117.5 57.1729 119.594 56.2824 121.755C54.9985 124.869 53.8311 128.03 52.5989 131.165C51.258 134.574 50.4193 138.12 49.8136 141.721C49.5677 143.181 49.4901 144.672 49.314 146.349C50.7429 144.576 52.5497 143.748 54.4782 143.15C55.4878 142.837 56.5154 142.487 57.5974 142.769C59.2075 143.189 60.3128 144.18 60.507 145.832C60.5898 146.538 60.6468 147.25 60.8771 148.065C61.9307 146.385 63.1318 144.778 64.0067 143.007C65.4925 140.002 66.8153 136.914 68.1225 133.826C69.5048 130.564 71.3919 127.595 73.1314 124.53C75.5776 120.22 77.7209 115.74 79.9911 111.331C81.231 108.924 82.4709 106.516 83.6875 104.099C83.8351 103.804 83.9179 103.439 83.9127 103.107C83.8506 99.0951 84.4046 95.1579 85.3338 91.2673C85.6134 90.0973 86.9155 89.5795 87.9845 90.1257C88.6084 90.4441 88.4867 90.9282 88.3909 91.3786C87.9146 93.6151 87.3607 95.8361 86.9155 98.0778C86.7032 99.1417 86.6721 100.244 86.5531 101.399C86.7187 101.37 86.799 101.373 86.8715 101.345C87.7904 100.982 88.0467 101.148 88.1606 102.134C88.2848 103.219 88.07 104.257 87.4746 105.126C86.3977 106.695 86.6385 108.274 87.1148 109.941C87.9638 112.921 89.3668 115.584 91.461 117.865C92.8614 119.389 94.6112 120.368 96.6899 120.435C97.7978 120.471 98.9264 120.114 100.032 119.879C100.197 119.842 100.407 119.506 100.412 119.301C100.531 115.742 101.515 112.346 102.336 108.919C102.558 107.995 102.765 107.065 102.946 106.131C103.042 105.647 103.26 105.362 103.762 105.23C104.448 105.051 105.258 104.927 105.615 105.52C105.903 105.996 105.835 106.801 105.693 107.404C105.041 110.169 104.233 112.9 103.625 115.675C103.229 117.479 103.011 119.33 102.848 121.173C102.701 122.824 102.61 124.502 102.713 126.153C102.91 129.319 103.226 132.503 104.831 135.335C106.107 137.584 107.963 139.324 110.158 140.685C111.212 141.338 112.371 141.317 113.528 141.043C113.663 141.012 113.839 140.675 113.813 140.509C113.272 136.792 114.559 133.456 115.982 130.163C117.02 127.763 118.043 125.343 119.28 123.044C120.686 120.438 122.327 117.958 123.862 115.421C124.113 115.004 124.333 114.567 124.587 114.15C124.68 113.997 124.809 113.78 124.949 113.757C125.366 113.687 125.928 113.529 126.181 113.728C126.401 113.899 126.432 114.588 126.275 114.916C125.689 116.141 125.079 117.373 124.318 118.491C121.682 122.361 119.637 126.526 117.859 130.841C117.046 132.814 116.215 134.765 115.918 136.901C115.563 139.44 115.892 141.845 117.202 144.084C117.965 145.389 118.83 146.624 120.3 147.17C121.398 147.579 122.547 147.887 123.699 148.107C125.288 148.41 126.901 148.767 128.506 148.77C130.062 148.772 131.656 148.5 133.165 148.094C135.987 147.33 138.725 146.3 141.058 144.454C142.378 143.411 143.659 142.316 144.93 141.214C147.92 138.62 150.897 136.016 153.869 133.401C155.647 131.838 157.417 130.269 159.162 128.669C160.41 127.528 161.673 126.394 162.812 125.146C165.258 122.462 167.536 119.633 169.465 116.545C170.231 115.318 170.573 113.956 170.56 112.501C170.531 109.372 170.22 106.286 169.126 103.325C169.102 103.265 169.061 103.211 168.942 103.006C168.331 103.659 167.79 104.296 167.184 104.87C164.751 107.179 162.227 109.4 159.879 111.789C158.147 113.552 156.612 115.509 155.033 117.417C153.208 119.625 151.42 121.867 149.634 124.106C148.143 125.975 146.621 127.823 145.552 129.987C145.438 130.217 145.295 130.435 145.155 130.65C144.85 131.123 144.526 131.209 144.084 130.774C143.142 129.847 142.87 128.408 143.406 127.212C144.498 124.768 146.152 122.695 147.778 120.609C149.711 118.126 151.658 115.649 153.654 113.218C155.634 110.806 157.764 108.53 160.148 106.498C162.714 104.311 165.336 102.178 167.774 99.8561C171.15 96.6411 173.723 92.7661 176.376 88.9531C179.57 84.3662 181.923 79.3987 183.565 74.0818C183.997 72.6788 184.245 71.2189 184.618 69.6062C183.844 70.1757 183.238 70.6235 182.847 70.9109C183.267 70.4423 183.847 69.79 184.432 69.1429C184.75 68.7882 184.986 69.029 185.216 69.2671V70.5381C185.076 71.3457 185.009 72.1715 184.786 72.9558C184.02 75.666 183.28 78.384 182.387 81.0528C180.792 85.821 178.139 90.061 175.478 94.2778C173.958 96.6851 172.232 98.9605 170.585 101.285C170.332 101.645 170 101.95 169.726 102.258C170.969 104.523 171.507 106.949 171.944 109.4C172.084 110.174 172.172 110.961 172.227 111.748C172.434 114.704 171.481 117.3 169.855 119.736C167.5 123.264 165.064 126.731 161.958 129.64C159.157 132.262 156.219 134.74 153.369 137.307C151.384 139.099 149.463 140.96 147.477 142.751C145.262 144.755 143.155 146.906 140.537 148.41C137.931 149.906 135.117 150.884 132.184 151.511C128.721 152.251 125.358 151.552 122.006 150.745C118.907 149.997 116.712 148.156 115.374 145.283C114.869 144.201 114.406 143.101 113.904 141.964C113.58 142.032 113.153 142.112 112.729 142.205C111.134 142.557 109.752 142.016 108.47 141.146C106.55 139.839 104.789 138.361 103.513 136.381C102.147 134.261 101.373 131.908 101.013 129.449C100.604 126.643 100.389 123.805 100.096 121.033C99.1205 121.209 97.9919 121.385 96.8736 121.618C95.4836 121.908 94.1997 121.535 92.9779 120.979C90.3893 119.801 88.6136 117.722 87.2183 115.336C86.2813 113.731 85.5461 112.009 84.7307 110.361C84.0033 111.867 83.2578 113.508 82.4295 115.108C81.0446 117.787 79.7011 120.495 78.1661 123.086C76.3826 126.094 74.3402 128.949 72.5464 131.952C71.2883 134.059 70.2296 136.29 69.1321 138.49C68.182 140.396 67.3045 142.34 66.3959 144.265C66.3105 144.447 66.2277 144.628 66.106 144.887C66.8231 144.887 67.4547 144.926 68.0811 144.879C69.466 144.773 70.7499 145.107 71.9769 145.707C73.6387 146.523 75.3627 147.229 76.7761 148.48C78.2904 149.818 79.4656 151.353 79.7555 153.455C79.9988 153.481 80.2654 153.463 80.4984 153.543C81.1533 153.765 81.4122 154.177 81.4096 154.941C81.3992 157.721 81.1663 160.467 80.7159 163.214C80.4441 164.886 80.2784 166.633 80.457 168.305C80.6123 169.773 80.1127 170.935 79.5639 172.147C79.3905 172.53 79.0618 172.887 78.7175 173.138C76.2014 174.976 73.6103 176.71 70.7784 178.023C68.9198 178.885 66.9628 179.532 65.068 180.322C64.2086 180.679 63.3829 181.121 62.5675 181.574C61.3431 182.26 60.0074 182.633 58.6406 182.656C55.8087 182.708 52.9743 182.618 50.1424 182.581C49.8602 182.579 49.5781 182.548 49.2985 182.553C45.0999 182.633 41.0255 181.901 37.021 180.699C36.3169 180.49 35.6102 180.257 34.8854 180.164C33.0268 179.92 32.2865 178.616 31.8827 177.039C31.7067 176.351 31.7351 175.608 31.7067 174.888C31.6083 172.382 31.5384 169.874 31.4323 167.371C31.3675 165.854 31.321 164.329 31.1242 162.828C31.0414 162.202 30.622 161.609 30.3088 161.024C29.3511 159.232 28.8696 157.325 29.056 155.303C29.219 153.551 29.9309 152.104 31.4763 151.047C32.9932 150.012 34.422 148.832 35.7914 147.607C37.7173 145.886 40.0082 145.102 42.4699 144.584C43.4717 144.374 44.4217 143.903 45.3898 143.538C45.7108 143.416 46.0162 143.253 46.2906 143.126C46.7229 140.792 47.005 138.42 47.6237 136.143C48.4624 133.052 49.5548 130.028 50.5462 126.976C51.8508 122.956 53.7353 119.185 55.5628 115.39C58.1384 110.042 60.6416 104.658 63.344 99.3747C65.1638 95.818 66.8075 92.194 68.3684 88.5208C69.2175 86.525 70.4315 84.682 71.4851 82.7742C72.0054 81.8294 72.5412 80.8949 72.9554 79.844C72.2124 80.4057 71.4928 81.0011 70.7266 81.5265C66.7092 84.2782 62.7953 87.2162 58.2937 89.1654C56.0624 90.1309 53.7275 90.7936 51.2555 90.8609C50.3262 90.8868 49.402 91.0473 48.4753 91.1171C47.0076 91.2285 45.7237 90.7418 44.8177 89.6028C43.1403 87.4983 42.2188 85.0858 42.4569 82.3575C42.677 79.8543 43.5493 77.5609 45.1128 75.5806C46.2285 74.1698 47.3778 72.7694 48.6384 71.4907C50.8516 69.2438 53.5049 67.6415 56.4222 66.4378C57.7657 65.8839 59.0522 65.1772 60.3361 64.4886C61.9074 63.6474 63.4916 62.819 64.9878 61.8587C66.6444 60.7973 68.1613 59.5134 69.831 58.4754C72.7198 56.6815 75.6759 55.0637 79.0385 54.2017C80.8686 53.7332 82.6314 52.8065 84.2751 51.8358C86.975 50.2412 89.8794 49.3792 92.9132 48.7787C93.8424 48.5949 94.7303 48.1419 95.6078 47.7484C97.6088 46.8528 99.633 45.9908 101.574 44.9761C104.096 43.6637 106.648 42.3694 108.988 40.7723C110.513 39.7316 111.644 38.1293 113.024 36.8558C114.535 35.4605 116.127 34.1533 117.686 32.8098C119.917 30.884 122.169 28.9839 124.372 27.027C126.948 24.7387 129.508 22.4375 132.013 20.0741C133.269 18.8886 134.359 17.5296 135.583 16.3078C136.473 15.4173 137.439 14.5993 138.41 13.7943C138.969 13.3309 139.606 12.9582 140.209 12.544C140.491 12.544 140.773 12.544 141.055 12.544L141.063 12.544ZM31.6316 155.233C32.6592 155.062 32.9259 155.228 33.1304 156.232C33.2158 156.662 33.2494 157.105 33.2753 157.542C33.3349 158.521 33.3607 159.502 33.4306 160.48C33.4436 160.664 33.573 160.858 33.6947 161.011C34.9216 162.561 36.6094 163.441 38.3851 164.184C40.6113 165.116 42.9125 165.792 45.3199 166.048C47.5357 166.284 49.7489 166.581 51.9725 166.726C54.8769 166.915 57.7269 166.413 60.5846 165.927C64.7755 165.215 68.6661 163.897 72.0131 161.184C73.7552 159.771 75.3084 158.21 76.248 156.139C76.978 154.532 77.2109 152.898 75.9762 151.436C75.2747 150.605 74.4748 149.81 73.5921 149.181C72.127 148.138 70.6515 147.046 68.8473 146.647C67.7886 146.414 66.7014 146.297 65.622 146.173C65.4692 146.155 65.244 146.375 65.1275 146.536C64.0533 148.016 63.023 149.528 61.9307 150.993C60.2067 153.305 58.4439 155.588 56.6914 157.879C56.6138 157.982 56.4973 158.062 56.3834 158.13C56.0495 158.324 55.6612 158.448 55.379 158.699C52.8138 160.993 49.5159 160.369 47.6962 157.804C45.8169 155.153 45.6486 152.137 45.9178 149.044C45.9851 148.273 46.0783 147.506 46.1612 146.717C45.0455 146.971 44.067 147.258 43.0704 147.403C41.1937 147.68 39.4024 148.112 37.8881 149.349C36.2496 150.69 34.6033 152.023 32.9285 153.323C32.2735 153.83 31.6549 154.314 31.6342 155.236L31.6316 155.233ZM33.8836 165.494C34.1011 166.959 34.391 168.461 34.5308 169.978C34.6964 171.766 34.7327 173.568 34.831 175.362C34.8647 175.97 34.9889 176.462 35.7707 176.54C36.3816 176.602 36.9821 176.817 37.5801 176.995C40.2955 177.805 43.073 178.354 45.8945 178.419C49.3166 178.499 52.7465 178.406 56.1685 178.284C57.6596 178.23 59.1635 178.064 60.4888 177.182C61.2395 176.682 62.0653 176.281 62.891 175.913C64.747 175.09 66.7014 174.456 68.4771 173.488C71.1589 172.025 73.7267 170.356 76.3231 168.743C76.5353 168.611 76.6855 168.246 76.7165 167.974C76.8097 167.164 76.8097 166.343 76.8796 165.53C77.0116 163.977 77.1643 162.427 77.3067 160.91C76.1367 162.51 74.6457 163.874 73.0201 165.103C69.7145 167.604 65.8808 168.738 61.8763 169.413C60.2352 169.69 58.5863 169.934 56.9322 170.123C55.6353 170.27 54.3151 170.451 53.0209 170.363C50.3779 170.185 47.7402 169.877 45.1102 169.551C42.7417 169.258 40.4405 168.65 38.2635 167.669C36.7673 166.996 35.3229 166.211 33.8862 165.492L33.8836 165.494ZM48.7471 150.222C48.8144 151.192 48.874 152.088 48.9439 152.981C48.9568 153.142 48.9775 153.307 49.0319 153.457C49.3089 154.208 49.5056 155.013 49.9068 155.694C50.5954 156.859 52.133 157.283 53.0907 156.522C54.3669 155.508 55.5266 154.343 56.7199 153.224C56.8597 153.095 56.9089 152.862 56.9839 152.671C57.6363 150.983 57.9365 149.238 57.8356 147.423C57.789 146.559 57.3748 146.209 56.5258 146.536C55.5835 146.898 54.6542 147.323 53.7638 147.801C52.6507 148.399 51.755 149.212 51.4548 150.53C51.3849 150.838 51.1804 151.117 51.0199 151.4C50.7636 151.85 50.3779 151.985 49.9871 151.622C49.5651 151.231 49.2131 150.76 48.7446 150.227L48.7471 150.222Z"/>
</mask>
<path d="M141.063 12.544C141.733 13.1057 141.568 14.4647 140.809 15.0834C139.637 16.0386 138.446 16.986 137.364 18.0395C136.481 18.8989 135.819 19.9861 134.928 20.8326C133.269 22.4064 131.511 23.8819 129.792 25.3962C129.51 25.6447 129.213 25.8751 128.951 26.1417C126.052 29.0771 122.966 31.8055 119.824 34.4795C117.028 36.8583 114.321 39.3537 111.97 42.2115C110.715 43.7387 109.055 44.8337 107.347 45.8148C105.421 46.9201 103.459 47.9607 101.52 49.0453C100.389 49.6769 99.2318 50.2774 98.155 50.9996C96.7339 51.9522 95.2454 52.7262 93.5784 53.1041C90.8993 53.7125 88.5411 55.0249 86.1829 56.3606C84.024 57.5849 81.7357 58.4573 79.3543 59.2054C76.9676 59.9561 74.7026 61.1675 72.4816 62.3582C70.6722 63.3264 69.044 64.631 67.2605 65.6587C65.6763 66.5724 64.0145 67.3671 62.3448 68.1152C60.4293 68.972 58.4465 69.6813 56.5258 70.5303C53.7379 71.7599 51.1649 73.3208 49.1898 75.71C48.2113 76.893 47.1371 78.0242 46.332 79.3185C44.8514 81.6974 44.9471 84.7933 46.6634 87.0712C47.2975 87.9125 48.2191 87.7572 49.0992 87.7054C49.3529 87.6899 49.604 87.6045 49.855 87.6071C53.2564 87.6381 56.5025 86.89 59.5259 85.3861C63.6107 83.3541 67.6229 81.1745 71.6688 79.0596C72.2021 78.7827 72.7353 78.5005 73.2919 78.2779C73.4938 78.1976 73.7604 78.2831 73.9985 78.2908L73.983 78.485L75.0599 77.7964L75.2152 77.9181C75.1608 78.1795 75.1608 78.4669 75.0443 78.6972C72.6085 83.5378 70.2167 88.381 68.635 93.6073C67.8507 96.2037 66.5979 98.6654 65.5003 101.161C63.4139 105.906 61.2939 110.635 59.1764 115.364C58.2213 117.5 57.1729 119.594 56.2824 121.755C54.9985 124.869 53.8311 128.03 52.5989 131.165C51.258 134.574 50.4193 138.12 49.8136 141.721C49.5677 143.181 49.4901 144.672 49.314 146.349C50.7429 144.576 52.5497 143.748 54.4782 143.15C55.4878 142.837 56.5154 142.487 57.5974 142.769C59.2075 143.189 60.3128 144.18 60.507 145.832C60.5898 146.538 60.6468 147.25 60.8771 148.065C61.9307 146.385 63.1318 144.778 64.0067 143.007C65.4925 140.002 66.8153 136.914 68.1225 133.826C69.5048 130.564 71.3919 127.595 73.1314 124.53C75.5776 120.22 77.7209 115.74 79.9911 111.331C81.231 108.924 82.4709 106.516 83.6875 104.099C83.8351 103.804 83.9179 103.439 83.9127 103.107C83.8506 99.0951 84.4046 95.1579 85.3338 91.2673C85.6134 90.0973 86.9155 89.5795 87.9845 90.1257C88.6084 90.4441 88.4867 90.9282 88.3909 91.3786C87.9146 93.6151 87.3607 95.8361 86.9155 98.0778C86.7032 99.1417 86.6721 100.244 86.5531 101.399C86.7187 101.37 86.799 101.373 86.8715 101.345C87.7904 100.982 88.0467 101.148 88.1606 102.134C88.2848 103.219 88.07 104.257 87.4746 105.126C86.3977 106.695 86.6385 108.274 87.1148 109.941C87.9638 112.921 89.3668 115.584 91.461 117.865C92.8614 119.389 94.6112 120.368 96.6899 120.435C97.7978 120.471 98.9264 120.114 100.032 119.879C100.197 119.842 100.407 119.506 100.412 119.301C100.531 115.742 101.515 112.346 102.336 108.919C102.558 107.995 102.765 107.065 102.946 106.131C103.042 105.647 103.26 105.362 103.762 105.23C104.448 105.051 105.258 104.927 105.615 105.52C105.903 105.996 105.835 106.801 105.693 107.404C105.041 110.169 104.233 112.9 103.625 115.675C103.229 117.479 103.011 119.33 102.848 121.173C102.701 122.824 102.61 124.502 102.713 126.153C102.91 129.319 103.226 132.503 104.831 135.335C106.107 137.584 107.963 139.324 110.158 140.685C111.212 141.338 112.371 141.317 113.528 141.043C113.663 141.012 113.839 140.675 113.813 140.509C113.272 136.792 114.559 133.456 115.982 130.163C117.02 127.763 118.043 125.343 119.28 123.044C120.686 120.438 122.327 117.958 123.862 115.421C124.113 115.004 124.333 114.567 124.587 114.15C124.68 113.997 124.809 113.78 124.949 113.757C125.366 113.687 125.928 113.529 126.181 113.728C126.401 113.899 126.432 114.588 126.275 114.916C125.689 116.141 125.079 117.373 124.318 118.491C121.682 122.361 119.637 126.526 117.859 130.841C117.046 132.814 116.215 134.765 115.918 136.901C115.563 139.44 115.892 141.845 117.202 144.084C117.965 145.389 118.83 146.624 120.3 147.17C121.398 147.579 122.547 147.887 123.699 148.107C125.288 148.41 126.901 148.767 128.506 148.77C130.062 148.772 131.656 148.5 133.165 148.094C135.987 147.33 138.725 146.3 141.058 144.454C142.378 143.411 143.659 142.316 144.93 141.214C147.92 138.62 150.897 136.016 153.869 133.401C155.647 131.838 157.417 130.269 159.162 128.669C160.41 127.528 161.673 126.394 162.812 125.146C165.258 122.462 167.536 119.633 169.465 116.545C170.231 115.318 170.573 113.956 170.56 112.501C170.531 109.372 170.22 106.286 169.126 103.325C169.102 103.265 169.061 103.211 168.942 103.006C168.331 103.659 167.79 104.296 167.184 104.87C164.751 107.179 162.227 109.4 159.879 111.789C158.147 113.552 156.612 115.509 155.033 117.417C153.208 119.625 151.42 121.867 149.634 124.106C148.143 125.975 146.621 127.823 145.552 129.987C145.438 130.217 145.295 130.435 145.155 130.65C144.85 131.123 144.526 131.209 144.084 130.774C143.142 129.847 142.87 128.408 143.406 127.212C144.498 124.768 146.152 122.695 147.778 120.609C149.711 118.126 151.658 115.649 153.654 113.218C155.634 110.806 157.764 108.53 160.148 106.498C162.714 104.311 165.336 102.178 167.774 99.8561C171.15 96.6411 173.723 92.7661 176.376 88.9531C179.57 84.3662 181.923 79.3987 183.565 74.0818C183.997 72.6788 184.245 71.2189 184.618 69.6062C183.844 70.1757 183.238 70.6235 182.847 70.9109C183.267 70.4423 183.847 69.79 184.432 69.1429C184.75 68.7882 184.986 69.029 185.216 69.2671V70.5381C185.076 71.3457 185.009 72.1715 184.786 72.9558C184.02 75.666 183.28 78.384 182.387 81.0528C180.792 85.821 178.139 90.061 175.478 94.2778C173.958 96.6851 172.232 98.9605 170.585 101.285C170.332 101.645 170 101.95 169.726 102.258C170.969 104.523 171.507 106.949 171.944 109.4C172.084 110.174 172.172 110.961 172.227 111.748C172.434 114.704 171.481 117.3 169.855 119.736C167.5 123.264 165.064 126.731 161.958 129.64C159.157 132.262 156.219 134.74 153.369 137.307C151.384 139.099 149.463 140.96 147.477 142.751C145.262 144.755 143.155 146.906 140.537 148.41C137.931 149.906 135.117 150.884 132.184 151.511C128.721 152.251 125.358 151.552 122.006 150.745C118.907 149.997 116.712 148.156 115.374 145.283C114.869 144.201 114.406 143.101 113.904 141.964C113.58 142.032 113.153 142.112 112.729 142.205C111.134 142.557 109.752 142.016 108.47 141.146C106.55 139.839 104.789 138.361 103.513 136.381C102.147 134.261 101.373 131.908 101.013 129.449C100.604 126.643 100.389 123.805 100.096 121.033C99.1205 121.209 97.9919 121.385 96.8736 121.618C95.4836 121.908 94.1997 121.535 92.9779 120.979C90.3893 119.801 88.6136 117.722 87.2183 115.336C86.2813 113.731 85.5461 112.009 84.7307 110.361C84.0033 111.867 83.2578 113.508 82.4295 115.108C81.0446 117.787 79.7011 120.495 78.1661 123.086C76.3826 126.094 74.3402 128.949 72.5464 131.952C71.2883 134.059 70.2296 136.29 69.1321 138.49C68.182 140.396 67.3045 142.34 66.3959 144.265C66.3105 144.447 66.2277 144.628 66.106 144.887C66.8231 144.887 67.4547 144.926 68.0811 144.879C69.466 144.773 70.7499 145.107 71.9769 145.707C73.6387 146.523 75.3627 147.229 76.7761 148.48C78.2904 149.818 79.4656 151.353 79.7555 153.455C79.9988 153.481 80.2654 153.463 80.4984 153.543C81.1533 153.765 81.4122 154.177 81.4096 154.941C81.3992 157.721 81.1663 160.467 80.7159 163.214C80.4441 164.886 80.2784 166.633 80.457 168.305C80.6123 169.773 80.1127 170.935 79.5639 172.147C79.3905 172.53 79.0618 172.887 78.7175 173.138C76.2014 174.976 73.6103 176.71 70.7784 178.023C68.9198 178.885 66.9628 179.532 65.068 180.322C64.2086 180.679 63.3829 181.121 62.5675 181.574C61.3431 182.26 60.0074 182.633 58.6406 182.656C55.8087 182.708 52.9743 182.618 50.1424 182.581C49.8602 182.579 49.5781 182.548 49.2985 182.553C45.0999 182.633 41.0255 181.901 37.021 180.699C36.3169 180.49 35.6102 180.257 34.8854 180.164C33.0268 179.92 32.2865 178.616 31.8827 177.039C31.7067 176.351 31.7351 175.608 31.7067 174.888C31.6083 172.382 31.5384 169.874 31.4323 167.371C31.3675 165.854 31.321 164.329 31.1242 162.828C31.0414 162.202 30.622 161.609 30.3088 161.024C29.3511 159.232 28.8696 157.325 29.056 155.303C29.219 153.551 29.9309 152.104 31.4763 151.047C32.9932 150.012 34.422 148.832 35.7914 147.607C37.7173 145.886 40.0082 145.102 42.4699 144.584C43.4717 144.374 44.4217 143.903 45.3898 143.538C45.7108 143.416 46.0162 143.253 46.2906 143.126C46.7229 140.792 47.005 138.42 47.6237 136.143C48.4624 133.052 49.5548 130.028 50.5462 126.976C51.8508 122.956 53.7353 119.185 55.5628 115.39C58.1384 110.042 60.6416 104.658 63.344 99.3747C65.1638 95.818 66.8075 92.194 68.3684 88.5208C69.2175 86.525 70.4315 84.682 71.4851 82.7742C72.0054 81.8294 72.5412 80.8949 72.9554 79.844C72.2124 80.4057 71.4928 81.0011 70.7266 81.5265C66.7092 84.2782 62.7953 87.2162 58.2937 89.1654C56.0624 90.1309 53.7275 90.7936 51.2555 90.8609C50.3262 90.8868 49.402 91.0473 48.4753 91.1171C47.0076 91.2285 45.7237 90.7418 44.8177 89.6028C43.1403 87.4983 42.2188 85.0858 42.4569 82.3575C42.677 79.8543 43.5493 77.5609 45.1128 75.5806C46.2285 74.1698 47.3778 72.7694 48.6384 71.4907C50.8516 69.2438 53.5049 67.6415 56.4222 66.4378C57.7657 65.8839 59.0522 65.1772 60.3361 64.4886C61.9074 63.6474 63.4916 62.819 64.9878 61.8587C66.6444 60.7973 68.1613 59.5134 69.831 58.4754C72.7198 56.6815 75.6759 55.0637 79.0385 54.2017C80.8686 53.7332 82.6314 52.8065 84.2751 51.8358C86.975 50.2412 89.8794 49.3792 92.9132 48.7787C93.8424 48.5949 94.7303 48.1419 95.6078 47.7484C97.6088 46.8528 99.633 45.9908 101.574 44.9761C104.096 43.6637 106.648 42.3694 108.988 40.7723C110.513 39.7316 111.644 38.1293 113.024 36.8558C114.535 35.4605 116.127 34.1533 117.686 32.8098C119.917 30.884 122.169 28.9839 124.372 27.027C126.948 24.7387 129.508 22.4375 132.013 20.0741C133.269 18.8886 134.359 17.5296 135.583 16.3078C136.473 15.4173 137.439 14.5993 138.41 13.7943C138.969 13.3309 139.606 12.9582 140.209 12.544C140.491 12.544 140.773 12.544 141.055 12.544L141.063 12.544ZM31.6316 155.233C32.6592 155.062 32.9259 155.228 33.1304 156.232C33.2158 156.662 33.2494 157.105 33.2753 157.542C33.3349 158.521 33.3607 159.502 33.4306 160.48C33.4436 160.664 33.573 160.858 33.6947 161.011C34.9216 162.561 36.6094 163.441 38.3851 164.184C40.6113 165.116 42.9125 165.792 45.3199 166.048C47.5357 166.284 49.7489 166.581 51.9725 166.726C54.8769 166.915 57.7269 166.413 60.5846 165.927C64.7755 165.215 68.6661 163.897 72.0131 161.184C73.7552 159.771 75.3084 158.21 76.248 156.139C76.978 154.532 77.2109 152.898 75.9762 151.436C75.2747 150.605 74.4748 149.81 73.5921 149.181C72.127 148.138 70.6515 147.046 68.8473 146.647C67.7886 146.414 66.7014 146.297 65.622 146.173C65.4692 146.155 65.244 146.375 65.1275 146.536C64.0533 148.016 63.023 149.528 61.9307 150.993C60.2067 153.305 58.4439 155.588 56.6914 157.879C56.6138 157.982 56.4973 158.062 56.3834 158.13C56.0495 158.324 55.6612 158.448 55.379 158.699C52.8138 160.993 49.5159 160.369 47.6962 157.804C45.8169 155.153 45.6486 152.137 45.9178 149.044C45.9851 148.273 46.0783 147.506 46.1612 146.717C45.0455 146.971 44.067 147.258 43.0704 147.403C41.1937 147.68 39.4024 148.112 37.8881 149.349C36.2496 150.69 34.6033 152.023 32.9285 153.323C32.2735 153.83 31.6549 154.314 31.6342 155.236L31.6316 155.233ZM33.8836 165.494C34.1011 166.959 34.391 168.461 34.5308 169.978C34.6964 171.766 34.7327 173.568 34.831 175.362C34.8647 175.97 34.9889 176.462 35.7707 176.54C36.3816 176.602 36.9821 176.817 37.5801 176.995C40.2955 177.805 43.073 178.354 45.8945 178.419C49.3166 178.499 52.7465 178.406 56.1685 178.284C57.6596 178.23 59.1635 178.064 60.4888 177.182C61.2395 176.682 62.0653 176.281 62.891 175.913C64.747 175.09 66.7014 174.456 68.4771 173.488C71.1589 172.025 73.7267 170.356 76.3231 168.743C76.5353 168.611 76.6855 168.246 76.7165 167.974C76.8097 167.164 76.8097 166.343 76.8796 165.53C77.0116 163.977 77.1643 162.427 77.3067 160.91C76.1367 162.51 74.6457 163.874 73.0201 165.103C69.7145 167.604 65.8808 168.738 61.8763 169.413C60.2352 169.69 58.5863 169.934 56.9322 170.123C55.6353 170.27 54.3151 170.451 53.0209 170.363C50.3779 170.185 47.7402 169.877 45.1102 169.551C42.7417 169.258 40.4405 168.65 38.2635 167.669C36.7673 166.996 35.3229 166.211 33.8862 165.492L33.8836 165.494ZM48.7471 150.222C48.8144 151.192 48.874 152.088 48.9439 152.981C48.9568 153.142 48.9775 153.307 49.0319 153.457C49.3089 154.208 49.5056 155.013 49.9068 155.694C50.5954 156.859 52.133 157.283 53.0907 156.522C54.3669 155.508 55.5266 154.343 56.7199 153.224C56.8597 153.095 56.9089 152.862 56.9839 152.671C57.6363 150.983 57.9365 149.238 57.8356 147.423C57.789 146.559 57.3748 146.209 56.5258 146.536C55.5835 146.898 54.6542 147.323 53.7638 147.801C52.6507 148.399 51.755 149.212 51.4548 150.53C51.3849 150.838 51.1804 151.117 51.0199 151.4C50.7636 151.85 50.3779 151.985 49.9871 151.622C49.5651 151.231 49.2131 150.76 48.7446 150.227L48.7471 150.222Z" fill="white"/>
<path d="M141.063 12.544C141.733 13.1057 141.568 14.4647 140.809 15.0834C139.637 16.0386 138.446 16.986 137.364 18.0395C136.481 18.8989 135.819 19.9861 134.928 20.8326C133.269 22.4064 131.511 23.8819 129.792 25.3962C129.51 25.6447 129.213 25.8751 128.951 26.1417C126.052 29.0771 122.966 31.8055 119.824 34.4795C117.028 36.8583 114.321 39.3537 111.97 42.2115C110.715 43.7387 109.055 44.8337 107.347 45.8148C105.421 46.9201 103.459 47.9607 101.52 49.0453C100.389 49.6769 99.2318 50.2774 98.155 50.9996C96.7339 51.9522 95.2454 52.7262 93.5784 53.1041C90.8993 53.7125 88.5411 55.0249 86.1829 56.3606C84.024 57.5849 81.7357 58.4573 79.3543 59.2054C76.9676 59.9561 74.7026 61.1675 72.4816 62.3582C70.6722 63.3264 69.044 64.631 67.2605 65.6587C65.6763 66.5724 64.0145 67.3671 62.3448 68.1152C60.4293 68.972 58.4465 69.6813 56.5258 70.5303C53.7379 71.7599 51.1649 73.3208 49.1898 75.71C48.2113 76.893 47.1371 78.0242 46.332 79.3185C44.8514 81.6974 44.9471 84.7933 46.6634 87.0712C47.2975 87.9125 48.2191 87.7572 49.0992 87.7054C49.3529 87.6899 49.604 87.6045 49.855 87.6071C53.2564 87.6381 56.5025 86.89 59.5259 85.3861C63.6107 83.3541 67.6229 81.1745 71.6688 79.0596C72.2021 78.7827 72.7353 78.5005 73.2919 78.2779C73.4938 78.1976 73.7604 78.2831 73.9985 78.2908L73.983 78.485L75.0599 77.7964L75.2152 77.9181C75.1608 78.1795 75.1608 78.4669 75.0443 78.6972C72.6085 83.5378 70.2167 88.381 68.635 93.6073C67.8507 96.2037 66.5979 98.6654 65.5003 101.161C63.4139 105.906 61.2939 110.635 59.1764 115.364C58.2213 117.5 57.1729 119.594 56.2824 121.755C54.9985 124.869 53.8311 128.03 52.5989 131.165C51.258 134.574 50.4193 138.12 49.8136 141.721C49.5677 143.181 49.4901 144.672 49.314 146.349C50.7429 144.576 52.5497 143.748 54.4782 143.15C55.4878 142.837 56.5154 142.487 57.5974 142.769C59.2075 143.189 60.3128 144.18 60.507 145.832C60.5898 146.538 60.6468 147.25 60.8771 148.065C61.9307 146.385 63.1318 144.778 64.0067 143.007C65.4925 140.002 66.8153 136.914 68.1225 133.826C69.5048 130.564 71.3919 127.595 73.1314 124.53C75.5776 120.22 77.7209 115.74 79.9911 111.331C81.231 108.924 82.4709 106.516 83.6875 104.099C83.8351 103.804 83.9179 103.439 83.9127 103.107C83.8506 99.0951 84.4046 95.1579 85.3338 91.2673C85.6134 90.0973 86.9155 89.5795 87.9845 90.1257C88.6084 90.4441 88.4867 90.9282 88.3909 91.3786C87.9146 93.6151 87.3607 95.8361 86.9155 98.0778C86.7032 99.1417 86.6721 100.244 86.5531 101.399C86.7187 101.37 86.799 101.373 86.8715 101.345C87.7904 100.982 88.0467 101.148 88.1606 102.134C88.2848 103.219 88.07 104.257 87.4746 105.126C86.3977 106.695 86.6385 108.274 87.1148 109.941C87.9638 112.921 89.3668 115.584 91.461 117.865C92.8614 119.389 94.6112 120.368 96.6899 120.435C97.7978 120.471 98.9264 120.114 100.032 119.879C100.197 119.842 100.407 119.506 100.412 119.301C100.531 115.742 101.515 112.346 102.336 108.919C102.558 107.995 102.765 107.065 102.946 106.131C103.042 105.647 103.26 105.362 103.762 105.23C104.448 105.051 105.258 104.927 105.615 105.52C105.903 105.996 105.835 106.801 105.693 107.404C105.041 110.169 104.233 112.9 103.625 115.675C103.229 117.479 103.011 119.33 102.848 121.173C102.701 122.824 102.61 124.502 102.713 126.153C102.91 129.319 103.226 132.503 104.831 135.335C106.107 137.584 107.963 139.324 110.158 140.685C111.212 141.338 112.371 141.317 113.528 141.043C113.663 141.012 113.839 140.675 113.813 140.509C113.272 136.792 114.559 133.456 115.982 130.163C117.02 127.763 118.043 125.343 119.28 123.044C120.686 120.438 122.327 117.958 123.862 115.421C124.113 115.004 124.333 114.567 124.587 114.15C124.68 113.997 124.809 113.78 124.949 113.757C125.366 113.687 125.928 113.529 126.181 113.728C126.401 113.899 126.432 114.588 126.275 114.916C125.689 116.141 125.079 117.373 124.318 118.491C121.682 122.361 119.637 126.526 117.859 130.841C117.046 132.814 116.215 134.765 115.918 136.901C115.563 139.44 115.892 141.845 117.202 144.084C117.965 145.389 118.83 146.624 120.3 147.17C121.398 147.579 122.547 147.887 123.699 148.107C125.288 148.41 126.901 148.767 128.506 148.77C130.062 148.772 131.656 148.5 133.165 148.094C135.987 147.33 138.725 146.3 141.058 144.454C142.378 143.411 143.659 142.316 144.93 141.214C147.92 138.62 150.897 136.016 153.869 133.401C155.647 131.838 157.417 130.269 159.162 128.669C160.41 127.528 161.673 126.394 162.812 125.146C165.258 122.462 167.536 119.633 169.465 116.545C170.231 115.318 170.573 113.956 170.56 112.501C170.531 109.372 170.22 106.286 169.126 103.325C169.102 103.265 169.061 103.211 168.942 103.006C168.331 103.659 167.79 104.296 167.184 104.87C164.751 107.179 162.227 109.4 159.879 111.789C158.147 113.552 156.612 115.509 155.033 117.417C153.208 119.625 151.42 121.867 149.634 124.106C148.143 125.975 146.621 127.823 145.552 129.987C145.438 130.217 145.295 130.435 145.155 130.65C144.85 131.123 144.526 131.209 144.084 130.774C143.142 129.847 142.87 128.408 143.406 127.212C144.498 124.768 146.152 122.695 147.778 120.609C149.711 118.126 151.658 115.649 153.654 113.218C155.634 110.806 157.764 108.53 160.148 106.498C162.714 104.311 165.336 102.178 167.774 99.8561C171.15 96.6411 173.723 92.7661 176.376 88.9531C179.57 84.3662 181.923 79.3987 183.565 74.0818C183.997 72.6788 184.245 71.2189 184.618 69.6062C183.844 70.1757 183.238 70.6235 182.847 70.9109C183.267 70.4423 183.847 69.79 184.432 69.1429C184.75 68.7882 184.986 69.029 185.216 69.2671V70.5381C185.076 71.3457 185.009 72.1715 184.786 72.9558C184.02 75.666 183.28 78.384 182.387 81.0528C180.792 85.821 178.139 90.061 175.478 94.2778C173.958 96.6851 172.232 98.9605 170.585 101.285C170.332 101.645 170 101.95 169.726 102.258C170.969 104.523 171.507 106.949 171.944 109.4C172.084 110.174 172.172 110.961 172.227 111.748C172.434 114.704 171.481 117.3 169.855 119.736C167.5 123.264 165.064 126.731 161.958 129.64C159.157 132.262 156.219 134.74 153.369 137.307C151.384 139.099 149.463 140.96 147.477 142.751C145.262 144.755 143.155 146.906 140.537 148.41C137.931 149.906 135.117 150.884 132.184 151.511C128.721 152.251 125.358 151.552 122.006 150.745C118.907 149.997 116.712 148.156 115.374 145.283C114.869 144.201 114.406 143.101 113.904 141.964C113.58 142.032 113.153 142.112 112.729 142.205C111.134 142.557 109.752 142.016 108.47 141.146C106.55 139.839 104.789 138.361 103.513 136.381C102.147 134.261 101.373 131.908 101.013 129.449C100.604 126.643 100.389 123.805 100.096 121.033C99.1205 121.209 97.9919 121.385 96.8736 121.618C95.4836 121.908 94.1997 121.535 92.9779 120.979C90.3893 119.801 88.6136 117.722 87.2183 115.336C86.2813 113.731 85.5461 112.009 84.7307 110.361C84.0033 111.867 83.2578 113.508 82.4295 115.108C81.0446 117.787 79.7011 120.495 78.1661 123.086C76.3826 126.094 74.3402 128.949 72.5464 131.952C71.2883 134.059 70.2296 136.29 69.1321 138.49C68.182 140.396 67.3045 142.34 66.3959 144.265C66.3105 144.447 66.2277 144.628 66.106 144.887C66.8231 144.887 67.4547 144.926 68.0811 144.879C69.466 144.773 70.7499 145.107 71.9769 145.707C73.6387 146.523 75.3627 147.229 76.7761 148.48C78.2904 149.818 79.4656 151.353 79.7555 153.455C79.9988 153.481 80.2654 153.463 80.4984 153.543C81.1533 153.765 81.4122 154.177 81.4096 154.941C81.3992 157.721 81.1663 160.467 80.7159 163.214C80.4441 164.886 80.2784 166.633 80.457 168.305C80.6123 169.773 80.1127 170.935 79.5639 172.147C79.3905 172.53 79.0618 172.887 78.7175 173.138C76.2014 174.976 73.6103 176.71 70.7784 178.023C68.9198 178.885 66.9628 179.532 65.068 180.322C64.2086 180.679 63.3829 181.121 62.5675 181.574C61.3431 182.26 60.0074 182.633 58.6406 182.656C55.8087 182.708 52.9743 182.618 50.1424 182.581C49.8602 182.579 49.5781 182.548 49.2985 182.553C45.0999 182.633 41.0255 181.901 37.021 180.699C36.3169 180.49 35.6102 180.257 34.8854 180.164C33.0268 179.92 32.2865 178.616 31.8827 177.039C31.7067 176.351 31.7351 175.608 31.7067 174.888C31.6083 172.382 31.5384 169.874 31.4323 167.371C31.3675 165.854 31.321 164.329 31.1242 162.828C31.0414 162.202 30.622 161.609 30.3088 161.024C29.3511 159.232 28.8696 157.325 29.056 155.303C29.219 153.551 29.9309 152.104 31.4763 151.047C32.9932 150.012 34.422 148.832 35.7914 147.607C37.7173 145.886 40.0082 145.102 42.4699 144.584C43.4717 144.374 44.4217 143.903 45.3898 143.538C45.7108 143.416 46.0162 143.253 46.2906 143.126C46.7229 140.792 47.005 138.42 47.6237 136.143C48.4624 133.052 49.5548 130.028 50.5462 126.976C51.8508 122.956 53.7353 119.185 55.5628 115.39C58.1384 110.042 60.6416 104.658 63.344 99.3747C65.1638 95.818 66.8075 92.194 68.3684 88.5208C69.2175 86.525 70.4315 84.682 71.4851 82.7742C72.0054 81.8294 72.5412 80.8949 72.9554 79.844C72.2124 80.4057 71.4928 81.0011 70.7266 81.5265C66.7092 84.2782 62.7953 87.2162 58.2937 89.1654C56.0624 90.1309 53.7275 90.7936 51.2555 90.8609C50.3262 90.8868 49.402 91.0473 48.4753 91.1171C47.0076 91.2285 45.7237 90.7418 44.8177 89.6028C43.1403 87.4983 42.2188 85.0858 42.4569 82.3575C42.677 79.8543 43.5493 77.5609 45.1128 75.5806C46.2285 74.1698 47.3778 72.7694 48.6384 71.4907C50.8516 69.2438 53.5049 67.6415 56.4222 66.4378C57.7657 65.8839 59.0522 65.1772 60.3361 64.4886C61.9074 63.6474 63.4916 62.819 64.9878 61.8587C66.6444 60.7973 68.1613 59.5134 69.831 58.4754C72.7198 56.6815 75.6759 55.0637 79.0385 54.2017C80.8686 53.7332 82.6314 52.8065 84.2751 51.8358C86.975 50.2412 89.8794 49.3792 92.9132 48.7787C93.8424 48.5949 94.7303 48.1419 95.6078 47.7484C97.6088 46.8528 99.633 45.9908 101.574 44.9761C104.096 43.6637 106.648 42.3694 108.988 40.7723C110.513 39.7316 111.644 38.1293 113.024 36.8558C114.535 35.4605 116.127 34.1533 117.686 32.8098C119.917 30.884 122.169 28.9839 124.372 27.027C126.948 24.7387 129.508 22.4375 132.013 20.0741C133.269 18.8886 134.359 17.5296 135.583 16.3078C136.473 15.4173 137.439 14.5993 138.41 13.7943C138.969 13.3309 139.606 12.9582 140.209 12.544C140.491 12.544 140.773 12.544 141.055 12.544L141.063 12.544ZM31.6316 155.233C32.6592 155.062 32.9259 155.228 33.1304 156.232C33.2158 156.662 33.2494 157.105 33.2753 157.542C33.3349 158.521 33.3607 159.502 33.4306 160.48C33.4436 160.664 33.573 160.858 33.6947 161.011C34.9216 162.561 36.6094 163.441 38.3851 164.184C40.6113 165.116 42.9125 165.792 45.3199 166.048C47.5357 166.284 49.7489 166.581 51.9725 166.726C54.8769 166.915 57.7269 166.413 60.5846 165.927C64.7755 165.215 68.6661 163.897 72.0131 161.184C73.7552 159.771 75.3084 158.21 76.248 156.139C76.978 154.532 77.2109 152.898 75.9762 151.436C75.2747 150.605 74.4748 149.81 73.5921 149.181C72.127 148.138 70.6515 147.046 68.8473 146.647C67.7886 146.414 66.7014 146.297 65.622 146.173C65.4692 146.155 65.244 146.375 65.1275 146.536C64.0533 148.016 63.023 149.528 61.9307 150.993C60.2067 153.305 58.4439 155.588 56.6914 157.879C56.6138 157.982 56.4973 158.062 56.3834 158.13C56.0495 158.324 55.6612 158.448 55.379 158.699C52.8138 160.993 49.5159 160.369 47.6962 157.804C45.8169 155.153 45.6486 152.137 45.9178 149.044C45.9851 148.273 46.0783 147.506 46.1612 146.717C45.0455 146.971 44.067 147.258 43.0704 147.403C41.1937 147.68 39.4024 148.112 37.8881 149.349C36.2496 150.69 34.6033 152.023 32.9285 153.323C32.2735 153.83 31.6549 154.314 31.6342 155.236L31.6316 155.233ZM33.8836 165.494C34.1011 166.959 34.391 168.461 34.5308 169.978C34.6964 171.766 34.7327 173.568 34.831 175.362C34.8647 175.97 34.9889 176.462 35.7707 176.54C36.3816 176.602 36.9821 176.817 37.5801 176.995C40.2955 177.805 43.073 178.354 45.8945 178.419C49.3166 178.499 52.7465 178.406 56.1685 178.284C57.6596 178.23 59.1635 178.064 60.4888 177.182C61.2395 176.682 62.0653 176.281 62.891 175.913C64.747 175.09 66.7014 174.456 68.4771 173.488C71.1589 172.025 73.7267 170.356 76.3231 168.743C76.5353 168.611 76.6855 168.246 76.7165 167.974C76.8097 167.164 76.8097 166.343 76.8796 165.53C77.0116 163.977 77.1643 162.427 77.3067 160.91C76.1367 162.51 74.6457 163.874 73.0201 165.103C69.7145 167.604 65.8808 168.738 61.8763 169.413C60.2352 169.69 58.5863 169.934 56.9322 170.123C55.6353 170.27 54.3151 170.451 53.0209 170.363C50.3779 170.185 47.7402 169.877 45.1102 169.551C42.7417 169.258 40.4405 168.65 38.2635 167.669C36.7673 166.996 35.3229 166.211 33.8862 165.492L33.8836 165.494ZM48.7471 150.222C48.8144 151.192 48.874 152.088 48.9439 152.981C48.9568 153.142 48.9775 153.307 49.0319 153.457C49.3089 154.208 49.5056 155.013 49.9068 155.694C50.5954 156.859 52.133 157.283 53.0907 156.522C54.3669 155.508 55.5266 154.343 56.7199 153.224C56.8597 153.095 56.9089 152.862 56.9839 152.671C57.6363 150.983 57.9365 149.238 57.8356 147.423C57.789 146.559 57.3748 146.209 56.5258 146.536C55.5835 146.898 54.6542 147.323 53.7638 147.801C52.6507 148.399 51.755 149.212 51.4548 150.53C51.3849 150.838 51.1804 151.117 51.0199 151.4C50.7636 151.85 50.3779 151.985 49.9871 151.622C49.5651 151.231 49.2131 150.76 48.7446 150.227L48.7471 150.222Z" stroke="white" mask="url(#path-1-outside-1_1_67)"/>
<path d="M103.806 171.168C103.866 171.195 103.926 171.224 103.987 171.253C104.255 171.379 104.531 171.509 104.808 171.518C105.406 171.536 106.014 171.463 106.609 171.373C107.331 171.263 108.052 171.144 108.773 171.024C109.761 170.861 110.749 170.698 111.74 170.557M103.806 171.168L112.023 166.448C110.849 166.69 109.688 167.011 108.538 167.33C108.289 167.399 108.04 167.468 107.791 167.536M103.806 171.168C103.741 171.139 103.688 171.08 103.635 171.021M103.806 171.168L103.635 171.021M111.74 170.557L111.775 170.805M111.74 170.557L111.775 170.805C111.775 170.805 111.775 170.805 111.775 170.805M111.74 170.557C113.244 170.345 114.248 169.242 114.258 167.617M111.775 170.805C110.784 170.946 109.803 171.108 108.819 171.27C108.099 171.389 107.376 171.509 106.647 171.62L106.647 171.62C106.048 171.711 105.421 171.787 104.8 171.768L104.8 171.768C104.587 171.761 104.386 171.698 104.207 171.625C104.096 171.58 103.978 171.525 103.869 171.473C103.81 171.446 103.754 171.419 103.704 171.396L103.703 171.396C103.633 171.365 103.579 171.32 103.539 171.283C103.505 171.251 103.473 171.215 103.449 171.188C103.446 171.185 103.443 171.181 103.44 171.178C103.412 171.147 103.394 171.128 103.379 171.116C103.376 171.113 103.373 171.111 103.371 171.109M111.775 170.805C112.579 170.691 113.264 170.337 113.748 169.781C114.215 169.245 114.484 168.534 114.507 167.707M103.371 171.109C103.373 171.11 103.376 171.111 103.378 171.111L103.378 171.111C103.372 171.11 103.369 171.108 103.369 171.108C103.369 171.108 103.37 171.108 103.371 171.109ZM103.371 171.109C103.151 171.047 102.867 170.958 102.655 170.804C102.545 170.723 102.44 170.616 102.379 170.471C102.317 170.323 102.311 170.159 102.359 169.988L102.359 169.987C102.431 169.734 102.595 169.478 102.787 169.27C102.979 169.062 103.222 168.876 103.476 168.789M103.476 168.789C103.475 168.789 103.475 168.789 103.475 168.789L103.557 169.025L103.476 168.789ZM103.476 168.789C104.625 168.389 105.805 168.072 106.973 167.757C107.247 167.684 107.519 167.61 107.791 167.536M107.791 167.536L107.857 167.777L107.791 167.536C107.791 167.536 107.791 167.536 107.791 167.536ZM114.507 167.707L114.511 167.629C114.511 167.616 114.512 167.602 114.513 167.588C114.521 167.447 114.533 167.223 114.458 167.03C114.413 166.913 114.335 166.802 114.211 166.718C114.089 166.637 113.94 166.591 113.766 166.576L113.743 166.825L113.766 166.576C113.598 166.56 113.438 166.533 113.268 166.504C113.161 166.486 113.051 166.468 112.932 166.451C112.643 166.41 112.329 166.385 112.023 166.448L114.507 167.707ZM114.507 167.707L114.499 167.867H114.261H114.258V167.617M114.507 167.707C114.508 167.681 114.508 167.655 114.508 167.629C114.508 167.625 114.508 167.622 114.508 167.618L114.261 167.617L114.261 167.617L114.258 167.617M114.507 167.707L114.261 167.617H114.258M103.635 171.021C103.577 170.956 103.519 170.891 103.446 170.871M103.635 171.021L103.446 170.871M103.446 170.871C102.998 170.744 102.46 170.552 102.6 170.055L103.446 170.871Z" fill="white" stroke="white" stroke-width="0.5"/>
<path d="M12.8069 122.596L12.7621 122.588L12.7175 122.597C12.6114 122.617 12.5074 122.637 12.4044 122.657C12.2175 122.694 12.0335 122.73 11.8449 122.762L11.8449 122.762L11.8443 122.762C11.4276 122.832 11.0691 122.99 10.873 123.287C10.6693 123.595 10.6896 123.976 10.8583 124.376C11.2438 125.293 11.6834 126.221 12.2481 127.059C13.5197 128.952 15.2054 130.467 16.9246 131.888L17.0839 131.695L16.9246 131.888C18.0067 132.782 19.1423 133.608 20.3017 134.388L20.3021 134.388C20.4883 134.513 20.7545 134.58 20.9916 134.597C21.1137 134.606 21.2396 134.602 21.3562 134.581C21.4694 134.561 21.5935 134.521 21.6938 134.441C22.0107 134.191 22.1377 133.843 22.1103 133.492C22.0836 133.151 21.9123 132.816 21.6554 132.554L21.6554 132.553C21.1757 132.063 20.6926 131.579 20.2103 131.095C18.9199 129.801 17.6362 128.513 16.4443 127.141L16.4443 127.141C15.523 126.081 14.8097 124.8 14.1341 123.518C13.9736 123.213 13.7879 123.001 13.5561 122.854C13.3283 122.711 13.0755 122.644 12.8069 122.596Z" fill="white" stroke="white" stroke-width="0.5"/>
<path d="M94.561 156.63L94.5517 156.759H94.5465L94.5375 156.608L94.5159 156.757C94.3517 156.733 94.1786 156.711 93.9999 156.689C93.5401 156.631 93.0435 156.569 92.5651 156.455L92.5644 156.455C92.3706 156.408 92.2203 156.277 92.1113 156.169C92.0681 156.127 92.0247 156.081 91.9849 156.039C91.9729 156.026 91.9613 156.014 91.9501 156.002C91.8992 155.949 91.8539 155.903 91.8097 155.865L91.573 155.659L91.8258 155.474C91.8939 155.424 91.9576 155.38 92.0178 155.338C92.1412 155.253 92.2501 155.178 92.3524 155.083C93.0902 154.397 93.9497 153.933 94.9328 153.706L94.561 156.63ZM94.561 156.63L94.5762 156.758C94.7773 156.734 94.9683 156.709 95.1528 156.685C95.5546 156.634 95.9252 156.587 96.3004 156.557C96.6681 156.528 97.0355 156.499 97.4026 156.471C98.9813 156.346 100.555 156.223 102.133 156.143C102.619 156.12 103.055 156.018 103.414 155.782C103.778 155.543 104.038 155.183 104.199 154.69M94.561 156.63L96.6087 153.572C98.5613 153.117 100.514 152.662 102.475 152.246C102.827 152.172 103.231 152.28 103.612 152.383C103.683 152.401 103.753 152.42 103.821 152.438L103.882 152.195C104.098 152.249 104.273 152.338 104.403 152.466C104.535 152.596 104.605 152.751 104.636 152.909C104.693 153.19 104.627 153.505 104.578 153.743C104.576 153.755 104.573 153.766 104.571 153.777L104.326 153.727L104.571 153.776C104.533 153.964 104.454 154.135 104.383 154.281C104.371 154.305 104.359 154.329 104.348 154.352C104.287 154.474 104.235 154.58 104.199 154.69M104.199 154.69C104.198 154.69 104.198 154.691 104.198 154.691L103.961 154.612L104.199 154.689C104.199 154.69 104.199 154.69 104.199 154.69Z" fill="white" stroke="white" stroke-width="0.5"/>
<path d="M25.8774 107.097L25.6435 106.863L25.7649 107.625C25.7903 107.784 25.8077 107.924 25.8242 108.056C25.8317 108.117 25.839 108.176 25.8468 108.234C25.8712 108.417 25.8999 108.593 25.9546 108.766L25.9548 108.767C26.0984 109.217 26.2397 109.669 26.3814 110.121C26.8326 111.564 27.2867 113.016 27.823 114.433C28.3484 115.821 28.9769 117.175 29.5997 118.517C29.7455 118.831 29.891 119.144 30.0348 119.457C30.1046 119.611 30.2398 119.73 30.3655 119.809C30.4943 119.891 30.6481 119.953 30.793 119.973C30.8749 119.985 30.9425 119.96 30.9795 119.943C31.0209 119.923 31.0564 119.897 31.0846 119.874C31.1415 119.827 31.1952 119.766 31.2404 119.705C31.2863 119.643 31.33 119.571 31.3631 119.499C31.3939 119.431 31.4255 119.341 31.426 119.246C31.426 119.247 31.426 119.247 31.426 119.248L25.8774 107.097ZM25.8774 107.097C25.9465 106.813 26.0261 106.493 26.1189 106.179L26.3587 106.25L26.1186 106.18C26.1533 106.06 26.216 105.96 26.2704 105.882C26.2995 105.84 26.3225 105.808 26.3431 105.781C26.3693 105.745 26.3916 105.715 26.4176 105.675L26.5598 105.453L26.7736 105.607C26.8049 105.629 26.8415 105.654 26.881 105.681C26.9823 105.749 27.1023 105.83 27.2009 105.919C27.9505 106.587 28.3456 107.4 28.616 108.239C28.7508 108.657 28.8559 109.086 28.9572 109.506C28.9633 109.531 28.9694 109.556 28.9754 109.581C29.071 109.977 29.1646 110.365 29.2796 110.743L25.8774 107.097Z" fill="white" stroke="white" stroke-width="0.5"/>
<path d="M83.3078 136.17C83.4032 136.019 83.4915 135.87 83.5805 135.72C83.6438 135.613 83.7075 135.506 83.7743 135.397C83.9533 135.105 84.1465 134.816 84.3859 134.563L84.3862 134.562C85.4716 133.418 86.4023 132.193 87.0949 130.785L87.0951 130.785C87.3855 130.196 88.0539 129.825 88.7108 129.702C89.3652 129.579 90.1142 129.684 90.558 130.183L83.3078 136.17ZM83.3078 136.17H83.0266L83.2206 136.536C83.2958 136.679 83.3517 136.81 83.4082 136.942C83.4384 137.013 83.4689 137.084 83.5025 137.158C83.5905 137.35 83.7017 137.559 83.8886 137.701L83.8892 137.701C84.1544 137.901 84.4407 137.948 84.7195 137.88C84.9844 137.815 85.2256 137.65 85.4351 137.458C85.8658 137.065 86.3165 136.677 86.7702 136.287C87.4867 135.67 88.2107 135.048 88.8753 134.386L88.8754 134.386C88.9737 134.288 89.0788 134.188 89.1867 134.085C89.4452 133.838 89.7196 133.576 89.9541 133.296C90.2948 132.889 90.5801 132.416 90.675 131.817L90.675 131.817C90.6774 131.802 90.6799 131.787 90.6824 131.771C90.7182 131.546 90.7634 131.262 90.7709 130.998C90.7749 130.856 90.7685 130.709 90.7402 130.573C90.7122 130.438 90.6593 130.297 90.5581 130.183L83.3078 136.17Z" fill="white" stroke="white" stroke-width="0.5"/>
</svg>
