<svg width="25" height="24" viewBox="0 0 25 24" fill="none" xmlns="http://www.w3.org/2000/svg">
<path fill-rule="evenodd" clip-rule="evenodd" d="M20.656 4.659C20.7425 4.56011 20.8086 4.44516 20.8507 4.32071C20.8927 4.19626 20.9099 4.06475 20.9011 3.93368C20.8923 3.80261 20.8578 3.67455 20.7996 3.55682C20.7413 3.43908 20.6604 3.33398 20.5615 3.2475C20.4626 3.16102 20.3477 3.09487 20.2232 3.05282C20.0988 3.01077 19.9673 2.99364 19.8362 3.00242C19.7051 3.01119 19.5771 3.0457 19.4593 3.10396C19.3416 3.16223 19.2365 3.24311 19.15 3.342L14.04 9.182L9.70302 3.4C9.60987 3.2758 9.48908 3.175 9.35023 3.10557C9.21137 3.03614 9.05826 3 8.90302 3H4.90302C4.7173 3 4.53526 3.05171 4.37728 3.14935C4.21931 3.24698 4.09164 3.38668 4.00859 3.55279C3.92554 3.71889 3.89038 3.90484 3.90706 4.08981C3.92373 4.27477 3.99159 4.45143 4.10302 4.6L10.54 13.182L5.15002 19.342C5.06354 19.4409 4.99739 19.5558 4.95534 19.6803C4.91329 19.8047 4.89616 19.9363 4.90493 20.0673C4.91371 20.1984 4.94821 20.3264 5.00648 20.4442C5.06475 20.5619 5.14563 20.667 5.24452 20.7535C5.3434 20.84 5.45835 20.9061 5.5828 20.9482C5.70725 20.9902 5.83877 21.0074 5.96984 20.9986C6.10091 20.9898 6.22897 20.9553 6.3467 20.897C6.46443 20.8388 6.56954 20.7579 6.65602 20.659L11.766 14.818L16.103 20.6C16.1962 20.7242 16.3169 20.825 16.4558 20.8944C16.5947 20.9639 16.7478 21 16.903 21H20.903C21.0887 21 21.2708 20.9483 21.4287 20.8507C21.5867 20.753 21.7144 20.6133 21.7974 20.4472C21.8805 20.2811 21.9157 20.0952 21.899 19.9102C21.8823 19.7252 21.8144 19.5486 21.703 19.4L15.266 10.818L20.656 4.659ZM17.403 19L6.90302 5H8.40302L18.903 19H17.403Z" fill="white"/>
</svg>
