<svg width="25" height="24" viewBox="0 0 25 24" fill="none" xmlns="http://www.w3.org/2000/svg">
<path fill-rule="evenodd" clip-rule="evenodd" d="M20.68 4.42997C20.9271 4.32596 21.1976 4.29008 21.4633 4.32608C21.729 4.36208 21.9802 4.46863 22.1907 4.63465C22.4012 4.80067 22.5634 5.02008 22.6604 5.27005C22.7573 5.52002 22.7855 5.79141 22.742 6.05597L20.474 19.813C20.254 21.14 18.798 21.901 17.581 21.24C16.563 20.687 15.051 19.835 13.691 18.946C13.011 18.501 10.928 17.076 11.184 16.062C11.404 15.195 14.904 11.937 16.904 9.99997C17.689 9.23897 17.331 8.79997 16.404 9.49997C14.102 11.238 10.406 13.881 9.18401 14.625C8.10601 15.281 7.54401 15.393 6.87201 15.281C5.64601 15.077 4.50901 14.761 3.58101 14.376C2.32701 13.856 2.38801 12.132 3.58001 11.63L20.68 4.42997Z" fill="white"/>
</svg>
